<?xml version="1.0" encoding="UTF-8"?>
<!DOCTYPE svg PUBLIC "-//W3C//DTD SVG 1.0//EN" "http://www.w3.org/TR/2001/REC-SVG-20010904/DTD/svg10.dtd">
<!-- Creator: CorelDRAW X7 -->
<svg xmlns="http://www.w3.org/2000/svg" xml:space="preserve" width="210mm" height="297mm" version="1.0" style="shape-rendering:geometricPrecision; text-rendering:geometricPrecision; image-rendering:optimizeQuality; fill-rule:evenodd; clip-rule:evenodd"
viewBox="0 0 21000 29700"
 xmlns:xlink="http://www.w3.org/1999/xlink">
 <defs>
  <style type="text/css">
   <![CDATA[
    .str6 {stroke:#373435;stroke-width:20}
    .str1 {stroke:black;stroke-width:20}
    .str2 {stroke:black;stroke-width:10}
    .str3 {stroke:#C33FFF;stroke-width:10}
    .str4 {stroke:#CF6BFF;stroke-width:10}
    .str5 {stroke:#6B809B;stroke-width:7.62}
    .str0 {stroke:black;stroke-width:7.62}
    .str8 {stroke:#242568;stroke-width:7.62}
    .str7 {stroke:white;stroke-width:7.62}
    .fil0 {fill:none}
    .fil42 {fill:#6B809B}
    .fil1 {fill:#090252}
    .fil51 {fill:#120B6A}
    .fil49 {fill:#202B63}
    .fil54 {fill:#242568}
    .fil32 {fill:#252472}
    .fil6 {fill:#2E297B}
    .fil46 {fill:#2F317E}
    .fil45 {fill:#353F7C}
    .fil41 {fill:#383086}
    .fil53 {fill:#522BE0}
    .fil19 {fill:#595D9A}
    .fil7 {fill:#5E5FA0}
    .fil27 {fill:#6230C7}
    .fil25 {fill:#6D1AC4}
    .fil47 {fill:#7843D1}
    .fil5 {fill:#8581B4}
    .fil56 {fill:#8685C7}
    .fil23 {fill:#8990C4}
    .fil35 {fill:#94B9D4}
    .fil28 {fill:#B82DFC}
    .fil26 {fill:#D376FA}
    .fil31 {fill:#EFEDF0}
    .fil39 {fill:#FCFCFC}
    .fil29 {fill:white}
    .fil21 {fill:white}
    .fil22 {fill:url(#id1)}
    .fil8 {fill:url(#id2)}
    .fil37 {fill:url(#id3)}
    .fil44 {fill:url(#id4)}
    .fil67 {fill:url(#id5)}
    .fil10 {fill:url(#id6)}
    .fil62 {fill:url(#id7)}
    .fil55 {fill:url(#id8)}
    .fil14 {fill:url(#id9)}
    .fil63 {fill:url(#id10)}
    .fil72 {fill:url(#id11)}
    .fil65 {fill:url(#id12)}
    .fil52 {fill:url(#id13)}
    .fil15 {fill:url(#id14)}
    .fil61 {fill:url(#id15)}
    .fil57 {fill:url(#id16)}
    .fil33 {fill:url(#id17)}
    .fil40 {fill:url(#id18)}
    .fil2 {fill:url(#id19)}
    .fil9 {fill:url(#id20)}
    .fil20 {fill:url(#id21)}
    .fil69 {fill:url(#id22)}
    .fil59 {fill:url(#id23)}
    .fil17 {fill:url(#id24)}
    .fil50 {fill:url(#id25)}
    .fil4 {fill:url(#id26)}
    .fil58 {fill:url(#id27)}
    .fil13 {fill:url(#id28)}
    .fil66 {fill:url(#id29)}
    .fil64 {fill:url(#id30)}
    .fil48 {fill:url(#id31)}
    .fil16 {fill:url(#id32)}
    .fil11 {fill:url(#id33)}
    .fil3 {fill:url(#id34)}
    .fil38 {fill:url(#id35)}
    .fil71 {fill:url(#id36)}
    .fil30 {fill:url(#id37)}
    .fil70 {fill:url(#id38)}
    .fil24 {fill:url(#id39)}
    .fil60 {fill:url(#id40)}
    .fil18 {fill:url(#id41)}
    .fil43 {fill:url(#id42)}
    .fil68 {fill:url(#id43)}
    .fil34 {fill:url(#id44)}
    .fil12 {fill:url(#id45)}
    .fil36 {fill:url(#id46)}
   ]]>
  </style>
   <clipPath id="id0">
    <rect x="-12925" y="19883" width="8670" height="8670"/>
   </clipPath>
  <linearGradient id="id1" gradientUnits="userSpaceOnUse" x1="7915.01" y1="16528.2" x2="8716.98" y2="16920">
   <stop offset="0" style="stop-opacity:1; stop-color:white"/>
   <stop offset="0.380392" style="stop-opacity:1; stop-color:#E2D5FF"/>
   <stop offset="1" style="stop-opacity:1; stop-color:#C5ABFF"/>
  </linearGradient>
  <linearGradient id="id2" gradientUnits="userSpaceOnUse" x1="9785.13" y1="16887.1" x2="10018.3" y2="16873">
   <stop offset="0" style="stop-opacity:1; stop-color:#150567"/>
   <stop offset="1" style="stop-opacity:1; stop-color:#050344"/>
  </linearGradient>
  <linearGradient id="id3" gradientUnits="userSpaceOnUse" x1="10004.6" y1="15778.4" x2="10004.7" y2="15159.5">
   <stop offset="0" style="stop-opacity:1; stop-color:#474787"/>
   <stop offset="0.631373" style="stop-opacity:1; stop-color:#A0A1C1"/>
   <stop offset="1" style="stop-opacity:1; stop-color:#FAFBFB"/>
  </linearGradient>
  <linearGradient id="id4" gradientUnits="userSpaceOnUse" x1="11230" y1="15355.4" x2="10819" y2="15159.1">
   <stop offset="0" style="stop-opacity:1; stop-color:#B0CAEB"/>
   <stop offset="0.631373" style="stop-opacity:1; stop-color:#B7C7DD"/>
   <stop offset="1" style="stop-opacity:1; stop-color:#BFC3CE"/>
  </linearGradient>
  <linearGradient id="id5" gradientUnits="userSpaceOnUse" x1="11501" y1="17204.2" x2="11501" y2="16117.4">
   <stop offset="0" style="stop-opacity:1; stop-color:#572AC1"/>
   <stop offset="0.360784" style="stop-opacity:1; stop-color:#4E3EBE"/>
   <stop offset="1" style="stop-opacity:1; stop-color:#4452BB"/>
  </linearGradient>
  <linearGradient id="id6" gradientUnits="userSpaceOnUse" x1="7980.15" y1="16406.7" x2="8705.21" y2="16441.3">
   <stop offset="0" style="stop-opacity:1; stop-color:#8F92C7"/>
   <stop offset="1" style="stop-opacity:1; stop-color:#A5A7E2"/>
  </linearGradient>
  <linearGradient id="id7" gradientUnits="userSpaceOnUse" x1="12097.3" y1="17113.9" x2="11794.2" y2="16118.9">
   <stop offset="0" style="stop-opacity:1; stop-color:#292E6E"/>
   <stop offset="1" style="stop-opacity:1; stop-color:#282F7F"/>
  </linearGradient>
  <linearGradient id="id8" gradientUnits="userSpaceOnUse" xlink:href="#id2" x1="10090.6" y1="16825.1" x2="10257.5" y2="16440.2">
  </linearGradient>
  <linearGradient id="id9" gradientUnits="userSpaceOnUse" x1="11609" y1="16836.2" x2="11336.7" y2="16795.6">
   <stop offset="0" style="stop-opacity:1; stop-color:#BDBAF3"/>
   <stop offset="0.580392" style="stop-opacity:1; stop-color:#8C7BD8"/>
   <stop offset="1" style="stop-opacity:1; stop-color:#5A3BBC"/>
  </linearGradient>
  <linearGradient id="id10" gradientUnits="userSpaceOnUse" xlink:href="#id7" x1="10924.7" y1="17099.7" x2="11123.2" y2="16153.9">
  </linearGradient>
  <linearGradient id="id11" gradientUnits="userSpaceOnUse" x1="10419.6" y1="16532.4" x2="9560.53" y2="15937.1">
   <stop offset="0" style="stop-opacity:1; stop-color:#2E2E78"/>
   <stop offset="1" style="stop-opacity:1; stop-color:#8786C0"/>
  </linearGradient>
  <linearGradient id="id12" gradientUnits="userSpaceOnUse" x1="9459.34" y1="15814.9" x2="9459.32" y2="15797.9">
   <stop offset="0" style="stop-opacity:1; stop-color:#5F45AD"/>
   <stop offset="1" style="stop-opacity:1; stop-color:#7376AB"/>
  </linearGradient>
  <linearGradient id="id13" gradientUnits="userSpaceOnUse" x1="7616.09" y1="17171.4" x2="7616.13" y2="16361.8">
   <stop offset="0" style="stop-opacity:1; stop-color:#4D1CB3"/>
   <stop offset="0.419608" style="stop-opacity:1; stop-color:#30148F"/>
   <stop offset="1" style="stop-opacity:1; stop-color:#120B6A"/>
  </linearGradient>
  <linearGradient id="id14" gradientUnits="userSpaceOnUse" x1="9055.38" y1="16791.3" x2="8241.24" y2="16142.5">
   <stop offset="0" style="stop-opacity:1; stop-color:#38128C"/>
   <stop offset="1" style="stop-opacity:1; stop-color:#322D81"/>
  </linearGradient>
  <linearGradient id="id15" gradientUnits="userSpaceOnUse" x1="9382.17" y1="16147.1" x2="8488.89" y2="15674.4">
   <stop offset="0" style="stop-opacity:1; stop-color:#6140B3"/>
   <stop offset="0.188235" style="stop-opacity:1; stop-color:#5B4BA4"/>
   <stop offset="1" style="stop-opacity:1; stop-color:#555794"/>
  </linearGradient>
  <linearGradient id="id16" gradientUnits="userSpaceOnUse" x1="9526.05" y1="16841" x2="9526.09" y2="15769">
   <stop offset="0" style="stop-opacity:1; stop-color:#B63FFD"/>
   <stop offset="0.270588" style="stop-opacity:1; stop-color:#DA9EFD"/>
   <stop offset="1" style="stop-opacity:1; stop-color:#FEFEFE"/>
  </linearGradient>
  <linearGradient id="id17" gradientUnits="userSpaceOnUse" x1="8384.68" y1="15923.5" x2="8384.72" y2="15231.7">
   <stop offset="0" style="stop-opacity:1; stop-color:#424685"/>
   <stop offset="0.329412" style="stop-opacity:1; stop-color:#545990"/>
   <stop offset="1" style="stop-opacity:1; stop-color:#666D9B"/>
  </linearGradient>
  <linearGradient id="id18" gradientUnits="userSpaceOnUse" x1="9332.59" y1="17553.5" x2="9332.63" y2="17057.4">
   <stop offset="0" style="stop-opacity:0.498039; stop-color:#7C19FF"/>
   <stop offset="0.670588" style="stop-opacity:0.368627; stop-color:#8718FF"/>
   <stop offset="1" style="stop-opacity:0.368627; stop-color:#9317FF"/>
  </linearGradient>
  <linearGradient id="id19" gradientUnits="userSpaceOnUse" x1="6984.56" y1="17093.1" x2="8085.42" y2="16166.4">
   <stop offset="0" style="stop-opacity:1; stop-color:#282A75"/>
   <stop offset="1" style="stop-opacity:1; stop-color:#2E2399"/>
  </linearGradient>
  <linearGradient id="id20" gradientUnits="userSpaceOnUse" x1="11607.5" y1="17033.4" x2="11332.9" y2="16543.1">
   <stop offset="0" style="stop-opacity:1; stop-color:#4122BE"/>
   <stop offset="1" style="stop-opacity:1; stop-color:#171966"/>
  </linearGradient>
  <linearGradient id="id21" gradientUnits="userSpaceOnUse" x1="7599.25" y1="17398.4" x2="7188.07" y2="16145.9">
   <stop offset="0" style="stop-opacity:1; stop-color:#DEB1FF"/>
   <stop offset="0.211765" style="stop-opacity:1; stop-color:#BEABDA"/>
   <stop offset="1" style="stop-opacity:1; stop-color:#9DA4B4"/>
  </linearGradient>
  <linearGradient id="id22" gradientUnits="userSpaceOnUse" x1="9747.1" y1="16754.3" x2="10277.9" y2="16754.3">
   <stop offset="0" style="stop-opacity:1; stop-color:#440B98"/>
   <stop offset="0.658824" style="stop-opacity:1; stop-color:#331281"/>
   <stop offset="1" style="stop-opacity:1; stop-color:#22196A"/>
  </linearGradient>
  <linearGradient id="id23" gradientUnits="userSpaceOnUse" x1="10303.2" y1="15762.3" x2="9496.5" y2="15296.6">
   <stop offset="0" style="stop-opacity:1; stop-color:#7374AD"/>
   <stop offset="0.321569" style="stop-opacity:1; stop-color:#B8B9D6"/>
   <stop offset="1" style="stop-opacity:1; stop-color:#FEFFFF"/>
  </linearGradient>
  <linearGradient id="id24" gradientUnits="userSpaceOnUse" x1="9549.98" y1="17033.8" x2="7413.85" y2="16324.1">
   <stop offset="0" style="stop-opacity:1; stop-color:#4D10AB"/>
   <stop offset="1" style="stop-opacity:1; stop-color:#1C275F"/>
  </linearGradient>
  <linearGradient id="id25" gradientUnits="userSpaceOnUse" x1="7594.84" y1="17048.3" x2="7428.52" y2="16528.9">
   <stop offset="0" style="stop-opacity:1; stop-color:#5112D3"/>
   <stop offset="1" style="stop-opacity:1; stop-color:#191866"/>
  </linearGradient>
  <linearGradient id="id26" gradientUnits="userSpaceOnUse" x1="11091.5" y1="15824.6" x2="10798.5" y2="15454.9">
   <stop offset="0" style="stop-opacity:1; stop-color:#6F83C0"/>
   <stop offset="1" style="stop-opacity:1; stop-color:#444F8D"/>
  </linearGradient>
  <linearGradient id="id27" gradientUnits="userSpaceOnUse" x1="7838.22" y1="16288.9" x2="10296.9" y2="16288.9">
   <stop offset="0" style="stop-opacity:1; stop-color:#AAA8DA"/>
   <stop offset="1" style="stop-opacity:1; stop-color:#4E32A1"/>
  </linearGradient>
  <linearGradient id="id28" gradientUnits="userSpaceOnUse" x1="9799.81" y1="16809.6" x2="10415.5" y2="16115">
   <stop offset="0" style="stop-opacity:0; stop-color:#6F1BCB"/>
   <stop offset="0.0784314" style="stop-opacity:0.192157; stop-color:#6E21C7"/>
   <stop offset="0.278431" style="stop-opacity:0.537255; stop-color:#6B2FBE"/>
   <stop offset="0.509804" style="stop-opacity:0.85098; stop-color:#6840B4"/>
   <stop offset="1" style="stop-opacity:1; stop-color:#62649D"/>
  </linearGradient>
  <linearGradient id="id29" gradientUnits="userSpaceOnUse" x1="11487.4" y1="17173.8" x2="11487.5" y2="16272.8">
   <stop offset="0" style="stop-opacity:1; stop-color:#572AC1"/>
   <stop offset="1" style="stop-opacity:1; stop-color:#313977"/>
  </linearGradient>
  <linearGradient id="id30" gradientUnits="userSpaceOnUse" x1="10552.3" y1="15300.7" x2="10802.7" y2="15365.1">
   <stop offset="0" style="stop-opacity:1; stop-color:#5A6092"/>
   <stop offset="0.160784" style="stop-opacity:1; stop-color:#979FC5"/>
   <stop offset="1" style="stop-opacity:1; stop-color:#D5DFF8"/>
  </linearGradient>
  <linearGradient id="id31" gradientUnits="userSpaceOnUse" x1="9929.22" y1="17070.5" x2="9929.26" y2="16357.5">
   <stop offset="0" style="stop-opacity:1; stop-color:#7843D1"/>
   <stop offset="0.137255" style="stop-opacity:1; stop-color:#BBA0E7"/>
   <stop offset="0.580392" style="stop-opacity:1; stop-color:#8B5DD7"/>
   <stop offset="1" style="stop-opacity:1; stop-color:#FEFEFE"/>
  </linearGradient>
  <linearGradient id="id32" gradientUnits="userSpaceOnUse" x1="9856.31" y1="17036" x2="10402.4" y2="16577.6">
   <stop offset="0" style="stop-opacity:1; stop-color:#3F1593"/>
   <stop offset="0.439216" style="stop-opacity:1; stop-color:#260B72"/>
   <stop offset="1" style="stop-opacity:1; stop-color:#0C0050"/>
  </linearGradient>
  <linearGradient id="id33" gradientUnits="userSpaceOnUse" x1="11517.2" y1="16972.8" x2="11378.1" y2="16621.3">
   <stop offset="0" style="stop-opacity:1; stop-color:#4E2AC8"/>
   <stop offset="0.278431" style="stop-opacity:1; stop-color:#3B24AB"/>
   <stop offset="1" style="stop-opacity:1; stop-color:#271D8D"/>
  </linearGradient>
  <linearGradient id="id34" gradientUnits="userSpaceOnUse" x1="11273.3" y1="16256.3" x2="10865.2" y2="15495.4">
   <stop offset="0" style="stop-opacity:1; stop-color:#797BB6"/>
   <stop offset="1" style="stop-opacity:1; stop-color:#AFBDE2"/>
  </linearGradient>
  <linearGradient id="id35" gradientUnits="userSpaceOnUse" x1="7531.04" y1="16964.7" x2="7531.08" y2="16446.1">
   <stop offset="0" style="stop-opacity:1; stop-color:#601ADD"/>
   <stop offset="0.4" style="stop-opacity:1; stop-color:#481BB8"/>
   <stop offset="1" style="stop-opacity:1; stop-color:#301D93"/>
  </linearGradient>
  <linearGradient id="id36" gradientUnits="userSpaceOnUse" x1="11569.4" y1="17394.1" x2="11171.1" y2="16250.1">
   <stop offset="0" style="stop-opacity:1; stop-color:#D3C5FF"/>
   <stop offset="1" style="stop-opacity:1; stop-color:#A1A8C4"/>
  </linearGradient>
  <radialGradient id="id37" gradientUnits="userSpaceOnUse" gradientTransform="matrix(0.000350539 -1.03584 1.03584 0.000350539 -7569 26364)" cx="9526.95" cy="16501.5" r="114.11" fx="9526.95" fy="16501.5">
   <stop offset="0" style="stop-opacity:1; stop-color:white"/>
   <stop offset="0.588235" style="stop-opacity:1; stop-color:#F7E6FE"/>
   <stop offset="0.34902" style="stop-opacity:1; stop-color:#E9BAFC"/>
   <stop offset="1" style="stop-opacity:1; stop-color:#D376FA"/>
  </radialGradient>
  <radialGradient id="id38" gradientUnits="userSpaceOnUse" gradientTransform="matrix(0.000148754 -1.33265 1.33265 0.000148754 -12465 29195)" cx="9526.95" cy="16501.5" r="268.9" fx="9526.95" fy="16501.5">
   <stop offset="0" style="stop-opacity:0.756863; stop-color:white"/>
   <stop offset="0" style="stop-opacity:0.756863; stop-color:#A37FD4"/>
   <stop offset="1" style="stop-opacity:0.458824; stop-color:#4700A9"/>
  </radialGradient>
  <radialGradient id="id39" gradientUnits="userSpaceOnUse" gradientTransform="matrix(0.000435825 -1.74537 1.74537 0.000435825 -20241 32265)" cx="8919.08" cy="16705.1" r="91.78" fx="8919.08" fy="16705.1">
   <stop offset="0" style="stop-opacity:1; stop-color:#1C0D74"/>
   <stop offset="0.458824" style="stop-opacity:1; stop-color:#270A76"/>
   <stop offset="1" style="stop-opacity:1; stop-color:#310777"/>
  </radialGradient>
  <radialGradient id="id40" gradientUnits="userSpaceOnUse" gradientTransform="matrix(1.92266E-016 -3.13995 3.13995 1.92266E-016 -43532 44717)" cx="8921.16" cy="16705.1" r="52.09" fx="8921.16" fy="16705.1">
   <stop offset="0" style="stop-opacity:1; stop-color:#DB80FF"/>
   <stop offset="0.368627" style="stop-opacity:1; stop-color:#A55DDD"/>
   <stop offset="1" style="stop-opacity:1; stop-color:#6F3ABC"/>
  </radialGradient>
  <radialGradient id="id41" gradientUnits="userSpaceOnUse" gradientTransform="matrix(1.61023E-017 -0.26297 1.33122 -0.000673829 -9804 19068)" cx="11529.2" cy="16025.1" r="296.84" fx="11529.2" fy="16025.1">
   <stop offset="0" style="stop-opacity:1; stop-color:#233671"/>
   <stop offset="1" style="stop-opacity:1; stop-color:#2D377C"/>
  </radialGradient>
  <radialGradient id="id42" gradientUnits="userSpaceOnUse" gradientTransform="matrix(0.000407145 -1.75565 1.90035 -0.00871382 -24435 30195)" cx="7534.2" cy="16821.2" r="102.81" fx="7534.2" fy="16821.2">
   <stop offset="0" style="stop-opacity:1; stop-color:#7725F6"/>
   <stop offset="1" style="stop-opacity:0; stop-color:#5A18D1"/>
  </radialGradient>
  <radialGradient id="id43" gradientUnits="userSpaceOnUse" gradientTransform="matrix(7.68507E-005 -0.135123 2.10315 0.00115276 -27372 18692)" cx="9332.08" cy="17451.5" r="520.49" fx="9332.08" fy="17451.5">
   <stop offset="0" style="stop-opacity:1; stop-color:#8A1AFF"/>
   <stop offset="1" style="stop-opacity:1; stop-color:#4F03AB"/>
  </radialGradient>
  <radialGradient id="id44" gradientUnits="userSpaceOnUse" gradientTransform="matrix(4.89045E-005 -0.4922 1.09548 4.89058E-005 -7328 20636)" cx="9927.5" cy="15750.9" r="817.92" fx="9927.5" fy="15750.9">
   <stop offset="0" style="stop-opacity:1; stop-color:#9696CA"/>
   <stop offset="0.760784" style="stop-opacity:1; stop-color:#64689E"/>
   <stop offset="1" style="stop-opacity:1; stop-color:#323B72"/>
  </radialGradient>
  <radialGradient id="id45" gradientUnits="userSpaceOnUse" gradientTransform="matrix(0.000153447 -0.834714 0.842236 0.0165723 -1931 24649)" cx="11185.1" cy="15570.7" r="260.68" fx="11185.1" fy="15570.7">
   <stop offset="0" style="stop-opacity:1; stop-color:#D9F1F0"/>
   <stop offset="0.0901961" style="stop-opacity:1; stop-color:#7179A1"/>
   <stop offset="1" style="stop-opacity:1; stop-color:#090252"/>
  </radialGradient>
  <radialGradient id="id46" gradientUnits="userSpaceOnUse" gradientTransform="matrix(0.000248733 -1.80953 1.80973 0.000497451 -16943 35765)" cx="11181.6" cy="15539.3" r="160.82" fx="11181.6" fy="15539.3">
   <stop offset="0" style="stop-opacity:1; stop-color:#F9FFFF"/>
   <stop offset="1" style="stop-opacity:1; stop-color:#86CCCA"/>
  </radialGradient>
 </defs>
 <g id="Camada_x0020_1">
  <metadata id="CorelCorpID_0Corel-Layer"/>
  <path class="fil0 str0" d="M7453 16594c-96,80 -97,246 -14,321 96,86 258,84 327,-41m-340 -343l122 284 322 88c-170,228 -399,136 -471,69 -21,-19 -47,-47 -67,-89 -45,-94 -64,-238 94,-352"/>
  <path class="fil1" d="M10802 15323c16,9 39,16 68,20l26 0c-4,-9 -9,-17 -13,-26l-83 5 3 6c0,-2 -1,-3 -1,-5z"/>
  <g style="clip-path:url(#id0)">
   <image x="-12925" y="19883" width="8670" height="8670" xlink:href="RadmotosLogoVet_Images\RadmotosLogoVet_ImgID1.png"/>
  </g>
  <path class="fil2" d="M7161 16113c-197,134 -531,548 -176,980 -148,-382 -3,-668 149,-807 98,-90 259,-180 450,-179 151,0 327,48 492,218l154 0c-375,-496 -864,-352 -1069,-212z"/>
  <path class="fil3" d="M10899 15647l333 633 51 -29c-3,-9 -6,-17 -10,-26 -258,-480 -386,-743 -408,-730 -9,6 2,57 34,152z"/>
  <path class="fil4" d="M10902 15487c-1,-2 -63,-30 -104,-32l102 192c-31,-95 -42,-146 -33,-152 21,-13 149,250 408,730 -62,-160 -124,-291 -182,-400 -77,-146 -146,-252 -191,-338z"/>
  <path class="fil5" d="M11279 16371l213 402 40 -23 -208 -405 -45 26z"/>
  <path class="fil6" d="M8202 17094c34,-25 57,-54 70,-89l-36 0c0,22 -11,52 -34,89z"/>
  <path class="fil7" d="M11311 16307l-19 -33 -52 31 18 32 53 -30z"/>
  <path class="fil8" d="M9907 16754l-69 75 -53 58 56 38c0,0 55,2 74,-5 34,-12 73,-33 103,-47l-111 -119z"/>
  <path class="fil9" d="M11509 16973c-13,-1 -49,-2 -82,-15 -84,-34 -126,-116 -120,-204 2,-40 23,-85 71,-133l-45 -78c-76,55 -108,153 -108,216 0,81 54,173 112,220 72,60 146,65 167,66 81,6 147,-19 204,-74 50,-48 83,-141 80,-215 -2,-68 -40,-145 -134,-231l23 135 0 20c27,47 30,101 16,150 -21,76 -103,146 -184,143z"/>
  <path class="fil10" d="M8049 16435l656 6 -40 -29 -684 -6 -2 0 2 1 68 28z"/>
  <path class="fil11" d="M11564 16846c-48,43 -132,17 -158,-39 -13,-29 -14,-67 7,-124l-35 -62c-48,48 -69,93 -71,133 -6,88 36,170 120,204 33,13 69,14 82,15 81,3 163,-67 184,-143 14,-49 11,-103 -16,-150l0 32c-42,1 -85,-21 -128,-67l0 0c52,80 71,140 60,181 1,4 1,8 0,10 -3,6 -23,27 -45,10z"/>
  <path class="fil1" d="M8186 16994c-120,317 -415,406 -587,404 -103,-1 -204,-26 -292,-73 -74,-41 -169,-120 -221,-191 -116,-161 -123,-328 -122,-372 0,-44 17,-232 131,-379 59,-76 145,-144 244,-186 80,-33 169,-48 257,-48 125,0 283,26 428,176l-60 0c-134,-104 -264,-143 -382,-141 -159,4 -309,77 -413,183 -107,110 -159,250 -161,347 -3,134 38,257 56,294 25,50 137,231 324,304 184,72 546,73 760,-327l38 9zm-168 -53c-112,201 -267,262 -405,262 -122,1 -231,-47 -283,-88 -66,-53 -182,-193 -181,-360 0,-116 59,-286 227,-369l10 29 31 85c-113,80 -135,174 -137,251 -3,86 37,158 69,198 41,51 140,130 262,128 87,-1 189,-39 286,-168l87 23 34 9zm115 484c129,-110 219,-236 271,-376l315 67 1222 0c324,-220 513,-420 567,-602l-74 -191 345 -390 -23 -80 168 -85 125 253c-271,180 -398,478 -401,723 -3,224 105,454 320,681 -1027,-59 -1972,-59 -2835,0zm1330 -363c-238,1 -484,-1 -737,-5l-1160 -275c-48,-137 -111,-288 -188,-452 165,-29 302,-14 412,44l140 294 441 157 -49 -43 0 -1 -359 -158 -48 -95 -73 -144 0 -1c0,0 0,1 1,1l14 -31 -1 0 2 0 748 17 59 42 40 29 104 75 -161 -135 375 -417 120 0 -695 -178 12 -51 426 26 -47 42 390 70c182,6 232,-67 25,-73 -54,-3 -80,-28 -79,-75 79,-181 413,-290 609,-290 133,0 274,24 394,123 61,73 22,123 -118,151 186,15 245,-68 243,-119 -2,-61 -88,-140 -195,-192 -98,-48 -214,-69 -276,-68 -6,0 -13,0 -20,0 -90,5 -215,28 -353,80 -132,50 -319,182 -409,234 78,-107 264,-246 416,-323 148,-76 303,-119 447,-117 159,2 407,74 607,175 182,93 327,268 313,325 -86,-93 -234,-142 -434,-146l0 2c222,27 362,83 412,166 -110,68 -292,99 -547,94 -251,-9 -465,-15 -644,-19 -32,5 -54,18 -64,42 50,-10 105,-15 164,-16 77,-1 162,6 255,21 -167,19 -331,35 -481,81l62 5c97,-36 377,-55 840,-55l304 0 0 45 -352 410 19 41 29 -30 50 143c7,14 7,29 1,46 -19,42 -37,74 -68,119 -50,74 -119,145 -195,209 -74,61 -167,134 -270,195 -54,1 -109,2 -164,3 -95,1 -190,2 -287,2zm1037 -1761l0 1c-222,-102 -425,-158 -630,-149 -78,4 -156,16 -233,37 0,0 0,0 -1,0 78,-22 157,-34 236,-37 204,-9 407,46 628,148zm-21 -88l23 89c-1,-1 -2,-1 -2,-1l-23 -88 2 0zm206 30l0 1 -206 -31 0 -1 206 31zm-28 -75l30 76 -2 -1 -30 -75 2 0zm73 0l0 0 -73 0 0 0 73 0zm-25 -57l27 57 -2 0 -27 -57 2 0zm610 182c-132,-126 -247,-204 -347,-235l-377 0 24 115 -220 -35 13 65c-179,-70 -351,-105 -516,-106 -213,-2 -412,71 -602,183 -131,78 -258,166 -377,297l-375 0 -198 -178 -842 0 0 26 19 0 702 462 27 0 24 -14 544 135 -252 260 -185 0c-559,-728 -1277,-366 -1478,-114 -175,219 -456,745 140,1320l-825 101 222 259 -304 894 6049 0c92,-29 143,-70 190,-123 67,-73 78,-148 110,-225 33,-81 67,-219 64,-261 -1,-25 -8,-49 -18,-72l53 0 178 -475 -699 -99c412,-328 392,-819 274,-1082 -127,-281 -476,-655 -1096,-509l-75 -125c114,-16 226,-48 338,-95l-14 -39 88 -46c-93,-112 -179,-207 -259,-284zm-1483 2413l453 0c54,7 77,43 70,108l-203 643c-34,60 -71,90 -111,90l-462 0c-48,-26 -69,-70 -63,-134l195 -612c32,-59 73,-91 121,-95zm567 179l51 -175 637 0 -55 175 -202 0 -210 667 -236 0 218 -667 -203 0zm542 528l195 -612c32,-59 73,-91 121,-95l453 0c54,7 77,43 70,108l-203 643c-34,60 -71,90 -111,90l-462 0c-48,-26 -69,-70 -63,-134zm824 -295c0,-1 79,-239 97,-305 18,-67 63,-115 131,-107l523 0 -60 179 -393 0 -60 174 291 0c56,0 82,34 76,103l-86 252c-18,83 -68,129 -150,136l-494 0 56 -180 366 0 45 -126 -263 0c-61,-12 -87,-54 -79,-126zm-447 -2454c-61,20 -112,30 -153,30 -41,0 -67,-16 -96,-31l1 2c28,15 53,29 93,30 41,0 93,-10 153,-30 1,0 1,0 2,-1zm-87 -366c-97,-90 -189,-152 -277,-187l-249 0 0 0 251 0c88,34 180,97 278,186 73,68 148,150 227,248 -1,0 -1,0 -2,0 -79,-98 -155,-180 -228,-247zm-4699 2410l686 0c36,16 51,51 45,106l-106 315c-24,52 -72,83 -144,92l-70 0 126 310 0 21 -231 0 -124 -314 -101 318 -230 0 0 -25 211 -604 213 0 -41 133 188 0 61 -172 -318 0 -165 -180zm5652 963c4,-2 7,-3 10,-4 78,-31 131,-73 159,-126l11 -31c-38,70 -92,127 -180,161zm293 -492c-7,22 -14,44 -21,66l23 -67c26,-59 7,-123 -57,-191l0 -8 -2 0 0 9c64,68 83,131 57,191zm-108 322l87 -256c-26,89 -48,179 -87,256zm-6033 -875l168 185 0 15 -291 845 5971 0c-1,0 -1,0 -2,0l-5971 0 291 -845 0 -15 -168 -185 2 0zm862 -112c1,0 1,1 1,1l-863 111 0 0 862 -112zm112 -1566c-101,34 -184,81 -235,126 -127,113 -360,371 -343,703 11,220 138,534 469,737l-3 0c-330,-203 -457,-517 -468,-737 -17,-332 216,-590 343,-702 51,-46 135,-93 237,-127zm1635 -315c223,-231 453,-378 691,-443 -235,65 -465,212 -690,443l-1 0zm-1290 -178l-1 -1 669 0 195 179 427 0c-1,0 -1,0 -1,0l-428 0 -195 -178 -666 0zm578 870l-154 0c-165,-170 -342,-218 -493,-218 -190,-1 -351,89 -450,179 -152,139 -297,425 -149,807 -354,-432 -20,-846 176,-980 206,-140 695,-284 1070,212zm373 2l321 -352 -629 -156 -71 0 -575 -364 3 0 574 364 71 0 629 155 -321 353 -2 0zm-268 0c-296,-462 -738,-475 -1028,-379 290,-97 734,-85 1030,379l266 0 0 0 -268 0zm92 -546l-174 -24 -294 -189 -73 -47 300 0 47 42 194 174 0 44zm13 -99l-12 0 -203 -207 62 0 153 159 0 48zm-662 1310c-154,109 -322,36 -382,-20 -20,-18 -45,-45 -64,-84 -1,-2 -2,-3 -3,-5 -1,-2 -2,-4 -3,-6 -45,-96 -61,-235 97,-346 1,-1 2,-2 3,-2l27 63c-1,1 -2,1 -3,2l95 221 112 30 106 29 2 1c0,-1 0,-2 1,-2l104 28c-30,39 -61,69 -92,91zm1231 484c-64,-6 -127,-17 -190,-29 132,-30 339,-28 512,-28 174,0 344,-8 529,27 -52,11 -104,24 -157,30 -124,12 -247,8 -372,8 -105,0 -216,1 -322,-8zm2351 -96c-75,-17 -141,-49 -220,-104 -158,-109 -262,-305 -258,-517 2,-147 67,-410 286,-509l10 36c-201,120 -253,332 -252,472 1,197 96,371 238,472 51,37 107,70 160,89 88,32 167,36 183,34 16,-2 84,-2 172,-31 64,-21 141,-59 202,-109 122,-99 197,-287 199,-442 3,-164 -117,-503 -460,-552l0 -35c366,31 507,417 507,594 0,171 -74,355 -208,462 -66,52 -138,95 -207,120 -96,34 -182,39 -199,38 -12,0 -91,-3 -153,-18zm-556 -2045c-1,-3 -3,-5 -4,-7l-3 -6 83 -5c-24,-47 -45,-100 -64,-158l109 0c87,36 167,84 240,142 21,18 42,36 61,55 39,38 75,80 107,126 -116,-67 -252,-146 -366,-168 26,106 75,199 146,282 30,35 31,39 114,26 37,-6 75,-16 113,-32 -48,35 -108,57 -170,57 -24,0 -48,-5 -66,-21 -79,-69 -144,-150 -213,-240 -45,-15 -74,-32 -87,-51zm597 1860c-49,-11 -100,-37 -152,-76 -51,-38 -97,-89 -130,-155 -32,-64 -51,-144 -51,-210 0,-102 47,-262 195,-350l13 29 41 89c-97,71 -125,161 -123,231 2,89 39,180 107,236 130,109 287,119 417,5 60,-53 103,-144 100,-229 -3,-73 -44,-164 -153,-253l-14 -106 -3 -29c53,-4 153,67 201,133 59,82 90,182 92,245 4,130 -62,280 -161,358 -37,29 -103,64 -141,77 -58,19 -178,18 -238,5zm-658 -514c-1,-195 142,-470 349,-579l56 104c-154,109 -249,238 -287,387 -38,149 -26,376 61,507 -41,-49 -75,-76 -102,-124 -51,-92 -76,-204 -77,-295zm-2474 324c-13,35 -36,64 -70,89 23,-37 34,-67 34,-89l36 0zm4269 974l-1 0 -118 0 0 0 119 0zm-1335 -2037c552,-156 897,145 1029,384 145,262 233,816 -326,1185l766 109 -133 359 -1 0 132 -358 -766 -109c559,-370 471,-923 326,-1185 -132,-239 -476,-540 -1027,-385zm-50 -98l-89 -180c1,0 2,1 3,1l89 181 47 96c0,0 -1,0 -2,0l-48 -98zm-257 -197l-102 -192c29,1 68,15 89,25 9,3 14,6 15,7 42,80 105,179 176,311 5,9 10,18 15,27 57,109 120,240 181,400 4,9 7,17 10,26l-51 29 -333 -633zm438 1332c-58,-47 -112,-139 -112,-220 0,-63 32,-161 108,-216l45 78 35 62 69 118c9,12 29,18 59,18 0,-13 -11,-22 -34,-28 32,-20 62,-22 88,-5l-46 -141c0,0 0,0 0,0 0,0 0,-1 -1,-1l-298 -610 2 -19c224,-63 421,-48 592,44 -25,6 -49,13 -73,21 -65,20 -125,43 -182,71l65 374c94,86 132,163 134,231 3,74 -30,167 -80,215 -57,55 -123,80 -204,74 -21,-1 -95,-6 -167,-66zm-631 -1615l-148 -50 0 -36c135,26 216,56 245,87l-97 -20 0 19zm446 251c-57,-69 -100,-147 -128,-232l0 -12 322 178 0 18c-46,32 -111,48 -194,48zm-2562 2936l270 -843 196 0 101 317 285 -313 212 0 -267 841 -227 0 131 -399 -225 263 -51 0 -66 -266 -123 400 -236 0zm2902 -1778l-213 -402 45 -26 208 405 -40 23zm605 341c85,-193 92,-415 26,-576 -65,-161 -194,-295 -420,-388l183 -62c204,152 324,314 359,485 36,171 20,351 -148,541zm-839 -777l-18 -32 52 -31 19 33 -53 30zm-3222 1371l655 0c34,14 47,40 49,75 2,27 -6,58 -19,99l-161 524c-24,76 -70,125 -136,147l-582 0 199 -623 226 0 -136 437 203 0 156 -483 -338 0 -116 -176zm-671 64c29,-44 57,-67 83,-67l490 0c26,15 41,45 46,90 6,62 -141,411 -229,760l-231 0 0 -17 100 -304 -181 0 -104 304 0 17 -228 0c87,-250 178,-668 254,-783zm1419 -2076l-295 -6 0 -16 295 22z"/>
  <path class="fil12" d="M10901 15487c42,80 105,179 176,311l79 46 -89 -180c1,0 2,1 3,1l-1 -2c29,15 55,31 96,31 41,0 92,-10 153,-30 33,-11 68,-25 107,-41 -18,-38 -7,-64 34,-78 -79,-98 -155,-180 -228,-247l-63 3c21,18 42,36 61,55 39,38 75,80 107,126 -116,-67 -252,-146 -366,-168 26,106 75,199 146,282 30,35 31,39 114,26 37,-6 75,-16 113,-32 -48,35 -108,57 -170,57 -24,0 -48,-5 -66,-21 -79,-69 -144,-150 -213,-240 -45,-15 -74,-32 -87,-51l79 145c9,3 14,6 15,7zm251 128c-57,-69 -100,-147 -128,-232l0 -12 322 178 0 18c-46,32 -111,48 -194,48z"/>
  <path class="fil1" d="M11333 17882l-153 489 192 0 165 -489 -204 0z"/>
  <path class="fil1" d="M7686 18057l59 -172 -196 0 -60 172 197 0z"/>
  <path class="fil1" d="M9908 17882l-154 489 193 0 165 -489 -204 0z"/>
  <path class="fil1" d="M9165 16107c0,0 -1,0 -1,0 0,0 1,0 1,0zm545 648l588 -752c-142,-37 -281,-60 -415,-69 -105,-8 -207,-7 -307,2 -10,1 -21,2 -31,3 3,-2 7,-3 11,-5l-62 -5c-45,13 -89,30 -131,50 -72,35 -137,78 -198,128 -1,0 -1,0 -1,0 -121,98 -231,223 -373,369l89 72c28,-4 55,-5 76,0 39,8 65,31 83,50 30,30 43,74 41,110 -1,40 -19,72 -25,83 -6,12 -29,41 -64,59 -30,15 -69,22 -108,14 -49,-11 -101,-51 -147,-145 -69,-63 -279,-149 -630,-260l-57 -24 -68 -29 -124 -53 -14 31c241,145 451,270 641,362 166,80 314,140 441,179l916 0 -56 -38 706 -772 -205 0 -564 726 -392 0 -360 -432 56 -53 0 0 321 396c121,59 239,63 363,3zm50 -254c0,129 -104,234 -233,234 -129,0 -233,-105 -233,-234 0,-128 104,-233 233,-233 129,0 233,105 233,233zm-1456 71l-6 45 -116 -88 122 43zm122 40c143,58 229,119 259,185l-239 -112 -20 -73z"/>
  <path class="fil13" d="M9907 16754l332 -363 252 -276 -205 0 -524 675 76 39 69 -75z"/>
  <path class="fil14" d="M11406 16807c26,56 110,82 158,39 22,17 42,-4 45,-10 1,-2 1,-6 0,-10 11,-41 -8,-101 -60,-181l46 141c-26,-17 -56,-15 -88,5 23,6 34,15 34,28 -30,0 -50,-6 -59,-18l-69 -118c-21,57 -20,95 -7,124z"/>
  <path class="fil15" d="M8919 16827c-67,0 -121,-55 -121,-122 0,-67 54,-121 121,-121 67,0 122,54 122,121 0,67 -55,122 -122,122zm136 -36c6,-11 24,-43 25,-83 2,-36 -11,-80 -41,-110 -18,-19 -44,-42 -83,-50 -21,-5 -48,-4 -76,0l-89 -72 -56 -38 455 -462 -47 -12 -120 0 -375 417 161 135 -104 -75 -656 -6 57 24c351,111 561,197 630,260 46,94 98,134 147,145 39,8 78,1 108,-14 35,-18 58,-47 64,-59z"/>
  <path class="fil16" d="M10126 16861l-140 105 -4 3 -177 67 117 0c260,-169 420,-321 480,-458 -64,127 -176,220 -337,278 26,-4 47,-3 61,5z"/>
  <path class="fil17" d="M9463 17062l286 -93 -876 0c-53,-16 -105,-32 -156,-49 -138,-45 -271,-91 -395,-138l49 43 -441 -157 -140 -294c-110,-58 -247,-73 -412,-44 77,164 140,315 188,452l1160 275c253,4 499,6 737,5zm-1820 -380l932 285 -936 -271 4 -14z"/>
  <path class="fil18" d="M11844 16059c-171,-92 -368,-107 -592,-44l-2 19 27 34c175,-30 340,-26 494,12 24,-8 48,-15 73,-21z"/>
  <path class="fil19" d="M10286 16115l205 0 117 -128 -263 52 -59 76z"/>
  <path class="fil20" d="M8148 16985c-214,400 -576,399 -760,327 -187,-73 -299,-254 -324,-304 -18,-37 -59,-160 -56,-294 2,-97 54,-237 161,-347 104,-106 254,-179 413,-183 118,-2 248,37 382,141l60 0c-145,-150 -303,-176 -428,-176 -88,0 -177,15 -257,48 -99,42 -185,110 -244,186 -114,147 -131,335 -131,379 -1,44 6,211 122,372 52,71 147,150 221,191 88,47 189,72 292,73 172,2 467,-87 587,-404l-38 -9z"/>
  <path class="fil21" d="M12182 18671l-5971 0 291 -845 0 -15 -168 -185 865 -111c-331,-204 -458,-518 -469,-738 -17,-332 216,-590 343,-702 198,-176 865,-373 1265,252l268 0 321 -352 -629 -156 -71 0 -575 -364 669 0 195 178 428 0c296,-305 604,-465 926,-480 205,-9 408,47 630,149l-23 -89 208 31 -30 -76 75 0 -27 -57 251 0c153,61 321,206 505,434 -41,14 -52,40 -34,78 -110,48 -198,72 -262,72 -41,-1 -67,-16 -96,-31l137 278c552,-156 897,146 1029,385 145,262 233,815 -326,1185l766 109 -133 358 -120 0 0 9c64,68 83,131 57,191l-124 362c-30,55 -87,99 -171,130zm363 -552c-1,-25 -8,-49 -18,-72l53 0 178 -475 -699 -99c412,-328 392,-819 274,-1082 -127,-281 -476,-655 -1096,-509l-75 -125c114,-16 226,-48 338,-95l-14 -39 88 -46c-244,-297 -446,-470 -606,-519l-377 0 24 115 -220 -35 13 65c-179,-70 -351,-105 -516,-106 -213,-2 -412,71 -602,183 -131,78 -258,166 -377,297l-375 0 -198 -178 -842 0 0 26 19 0 702 462 27 0 24 -14 544 135 -252 260 -185 0c-559,-728 -1277,-366 -1478,-114 -175,219 -456,745 140,1320l-825 101 222 259 -304 894 6049 0c92,-29 143,-70 190,-123 67,-73 78,-148 110,-225 33,-81 67,-219 64,-261z"/>
  <path class="fil22" d="M8409 16793c-149,-72 -313,-160 -494,-265l48 95 359 158 0 1c124,47 257,93 395,138 -71,-29 -227,-89 -308,-127z"/>
  <path class="fil23" d="M11284 16077l249 81 33 4c8,-4 15,-8 23,-11 57,-28 117,-51 182,-71 -154,-38 -319,-42 -494,-12l7 9z"/>
  <path class="fil21" d="M11725 18409l367 0 60 -166 143 0 -55 191c-17,50 -54,71 -108,72l-444 0 37 -97zm337 -39l-366 0 -56 180 494 0c82,-7 132,-53 150,-136l86 -252c6,-69 -20,-103 -76,-103l-291 0 60 -174 393 0 60 -179 -523 0c-68,-8 -113,40 -131,107 -18,66 -97,304 -97,305 -8,72 18,114 79,126l263 0 -45 126z"/>
  <path class="fil0 str1" d="M11237 15882c620,-146 969,228 1096,509 118,263 138,754 -274,1082l699 99 -178 475 -53 0c10,23 17,47 18,72 3,42 -31,180 -64,261 -32,77 -43,152 -110,225 -47,53 -98,94 -190,123l-6049 0 304 -894 -222 -259 825 -101c-596,-575 -315,-1101 -140,-1320 201,-252 919,-614 1478,114l185 0 252 -260 -544 -135 -24 14 -27 0 -702 -462 -19 0 0 -26 842 0 198 178 375 0c119,-131 246,-219 377,-297 190,-112 389,-185 602,-183 165,1 337,36 516,106l-13 -65 220 35 -24 -115 377 0c160,49 362,222 606,519l-88 46 14 39c-112,47 -224,79 -338,95l75 125z"/>
  <path class="fil24" d="M8919 16757c-29,0 -52,-23 -52,-52 0,-29 23,-52 52,-52 29,0 52,23 52,52 0,29 -23,52 -52,52zm-92 -52c0,51 41,92 92,92 51,0 92,-41 92,-92 0,-51 -41,-92 -92,-92 -51,0 -92,41 -92,92z"/>
  <path class="fil25" d="M9527 16351c83,0 150,67 150,150 0,84 -67,151 -150,151 -83,0 -151,-67 -151,-151 0,-83 68,-150 151,-150zm214 150c0,-118 -96,-214 -214,-214 -118,0 -214,96 -214,214 0,119 96,215 214,215 118,0 214,-96 214,-215z"/>
  <path class="fil26" d="M9527 16716c-118,0 -214,-96 -214,-215 0,-118 96,-214 214,-214 118,0 214,96 214,214 0,119 -96,215 -214,215zm233 -215c0,-128 -104,-233 -233,-233 -129,0 -233,105 -233,233 0,129 104,234 233,234 129,0 233,-105 233,-234z"/>
  <circle class="fil0 str2" cx="9527" cy="16501" r="233"/>
  <path class="fil27" d="M8919 16584c-67,0 -121,54 -121,121 0,67 54,122 121,122 67,0 122,-55 122,-122 0,-67 -55,-121 -122,-121zm-92 121c0,-51 41,-92 92,-92 51,0 92,41 92,92 0,51 -41,92 -92,92 -51,0 -92,-41 -92,-92z"/>
  <circle class="fil0 str3" cx="9527" cy="16501" r="214"/>
  <path class="fil28" d="M9527 16616c-63,0 -114,-51 -114,-115 0,-63 51,-114 114,-114 63,0 114,51 114,114 0,64 -51,115 -114,115zm150 -115c0,-83 -67,-150 -150,-150 -83,0 -151,67 -151,150 0,84 68,151 151,151 83,0 150,-67 150,-151z"/>
  <circle class="fil0 str4" cx="9527" cy="16501" r="114"/>
  <circle class="fil0 str5" cx="9527" cy="16501" r="150"/>
  <path class="fil21" d="M7443 18234l181 0 -100 304 0 17 231 0c88,-349 235,-698 229,-760 -5,-45 -20,-75 -46,-90l-490 0c-26,0 -54,23 -83,67 -76,115 -167,533 -254,783l228 0 0 -17 104 -304zm136 271l84 -271 148 0 -87 271 -145 0zm-328 -271l147 0 -86 271 -145 0 84 -271zm238 -177l60 -172 196 0 -59 172 -197 0z"/>
  <path class="fil0 str1" d="M7448 17705c-26,0 -54,23 -83,67 -76,115 -167,533 -254,783l228 0 0 -17 104 -304 181 0 -100 304 0 17 231 0c88,-349 235,-698 229,-760 -5,-45 -20,-75 -46,-90l-490 0z"/>
  <path class="fil0 str1" d="M7489 18057l60 -172 196 0 -59 172 -197 0z"/>
  <path class="fil29" d="M8490 17884l-156 483 -203 0 136 -437 -226 0 -199 623 582 0c66,-22 112,-71 136,-147l161 -524c13,-41 21,-72 19,-99 -2,-35 -15,-61 -49,-75l-655 0 116 176 338 0zm-398 521l267 0 58 -169 151 0c-23,152 -66,241 -131,269l-547 0 92 -265 156 0 -46 165z"/>
  <path class="fil0 str1" d="M8721 17882l-161 524c-24,76 -70,125 -136,147l-582 0 199 -623 226 0 -136 437 203 0 156 -483 -338 0 -116 -176 655 0c34,14 47,40 49,75 2,27 -6,58 -19,99z"/>
  <path class="fil30" d="M9413 16501c0,64 51,115 114,115 63,0 114,-51 114,-115 0,-63 -51,-114 -114,-114 -63,0 -114,51 -114,114z"/>
  <path class="fil21" d="M6774 18236l152 -1 83 272 -150 1 -85 -250 0 -22zm-180 -309l-211 604 0 25 230 0 101 -318 124 314 231 0 0 -21 -126 -310 70 0c72,-9 120,-40 144,-92l106 -315c6,-55 -9,-90 -45,-106l-686 0 165 180 318 0 -61 172 -188 0 41 -133 -213 0zm-70 308l150 0 -82 273 -151 0 0 -22 83 -251z"/>
  <path class="fil0 str1" d="M6594 17927l-211 604 0 25 230 0 101 -318 124 314 231 0 0 -21 -126 -310 70 0c72,-9 120,-40 144,-92l106 -315c6,-55 -9,-90 -45,-106l-686 0 165 180 318 0 -61 172 -188 0 41 -133 -213 0z"/>
  <path class="fil29" d="M10525 18239l156 0 -95 274 -155 0 94 -274zm562 -529l-637 0 -51 175 203 0 -218 667 236 0 210 -667 202 0 55 -175z"/>
  <path class="fil31" d="M6524 18235l-83 251 0 22 151 0 82 -273 -150 0z"/>
  <path class="fil31" d="M6774 18258l85 250 150 -1 -83 -272 -152 1 0 22z"/>
  <path class="fil31" d="M7312 18505l86 -271 -147 0 -84 271 145 0z"/>
  <path class="fil31" d="M7663 18234l-84 271 145 0 87 -271 -148 0z"/>
  <path class="fil32" d="M8886 15761l-426 -26 379 68 47 -42z"/>
  <path class="fil0 str1" d="M10434 16323l74 191c-54,182 -243,382 -567,602l-1222 0 -315 -67c-52,140 -142,266 -271,376 863,-59 1808,-59 2835,0 -215,-227 -323,-457 -320,-681 3,-245 130,-543 401,-723l-125 -253 -168 85 23 80 -345 390z"/>
  <path class="fil29" d="M10152 18457l203 -643c7,-65 -16,-101 -70,-108l-453 0c-48,4 -89,36 -121,95l-195 612c-6,64 15,108 63,134l462 0c40,0 77,-30 111,-90zm-127 -218l160 0 -46 164c-22,67 -53,103 -94,107l-428 0c-54,-5 -74,-41 -59,-107l55 -164 158 0 -57 164 258 0 53 -164zm87 -357l-165 489 -193 0 154 -489 204 0z"/>
  <path class="fil31" d="M8092 18405l46 -165 -156 0 -92 265 547 0c65,-28 108,-117 131,-269l-151 0 -58 169 -267 0z"/>
  <path class="fil33" d="M8430 15737l-194 -174 -274 5 294 189 174 24 0 -44z"/>
  <path class="fil21" d="M11180 18371l153 -489 204 0 -165 489 -192 0zm272 -132l160 0 -46 164c-22,67 -53,103 -94,107l-428 0c-54,-5 -74,-41 -59,-107l55 -164 158 0 -57 164 258 0 53 -164zm-195 -533c-48,4 -89,36 -121,95l-195 612c-6,64 15,108 63,134l462 0c40,0 77,-30 111,-90l203 -643c7,-65 -16,-101 -70,-108l-453 0z"/>
  <path class="fil0 str1" d="M9711 17801c32,-59 73,-91 121,-95l453 0c54,7 77,43 70,108l-203 643c-34,60 -71,90 -111,90l-462 0c-48,-26 -69,-70 -63,-134l195 -612z"/>
  <path class="fil0 str1" d="M9947 18371l-193 0 154 -489 204 0 -165 489z"/>
  <path class="fil0 str1" d="M11136 17801c32,-59 73,-91 121,-95l453 0c54,7 77,43 70,108l-203 643c-34,60 -71,90 -111,90l-462 0c-48,-26 -69,-70 -63,-134l195 -612z"/>
  <path class="fil0 str1" d="M11372 18371l-192 0 153 -489 204 0 -165 489z"/>
  <path class="fil34" d="M10178 15558c-120,-99 -261,-123 -394,-123 -196,0 -530,109 -609,290 -1,47 25,72 79,75 92,-2 202,-2 345,1 7,0 14,0 21,0 179,4 393,10 644,19 255,5 437,-26 547,-94 -50,-83 -190,-139 -412,-166l0 -2 -3 0c9,19 13,34 13,43 -3,41 -30,94 -102,130 -67,34 -177,55 -339,47 -51,-2 -130,-10 -227,-25 -137,-41 -292,-74 -464,-99l0 -16 321 -24c175,65 329,97 462,95 140,-28 179,-78 118,-151z"/>
  <path class="fil0 str1" d="M10399 17885l203 0 -218 667 236 0 210 -667 202 0 55 -175 -637 0 -51 175z"/>
  <path class="fil0 str1" d="M12370 18162c6,-69 -20,-103 -76,-103l-291 0 60 -174 393 0 60 -179 -523 0c-68,-8 -113,40 -131,107 -18,66 -97,304 -97,305 -8,72 18,114 79,126l263 0 -45 126 -366 0 -56 180 494 0c82,-7 132,-53 150,-136l86 -252z"/>
  <path class="fil0 str0" d="M11886 16088c204,152 324,314 359,485 36,171 20,351 -148,541 85,-193 92,-415 26,-576 -65,-161 -194,-295 -420,-388l183 -62z"/>
  <path class="fil35" d="M10970 15314c114,22 250,101 366,168 -32,-46 -68,-88 -107,-126 -82,-24 -156,-51 -223,-83 -71,-34 -154,-76 -187,-114 22,68 48,130 77,184l-26 0c-29,-4 -52,-11 -68,-20 7,24 38,45 92,63 69,90 134,171 213,240 18,16 42,21 66,21 62,0 122,-22 170,-57 -38,16 -76,26 -113,32 -83,13 -84,9 -114,-26 -71,-83 -120,-176 -146,-282z"/>
  <path class="fil0 str0" d="M11333 16543l149 258"/>
  <path class="fil0 str0" d="M11324 16345l208 405 -40 23 -213 -402 45 -26z"/>
  <path class="fil0 str0" d="M11311 16307l-19 -33 -52 31 18 32 53 -30z"/>
  <path class="fil0 str0" d="M10819 15159c33,38 116,80 187,114 67,32 141,59 223,83"/>
  <path class="fil36" d="M11024 15383c28,85 71,163 128,232 83,0 148,-16 194,-48l0 -18 -322 -178 0 12z"/>
  <path class="fil0 str0" d="M11152 15615c83,0 148,-16 194,-48l0 -18 -322 -178 0 12c28,85 71,163 128,232z"/>
  <path class="fil0 str0" d="M11343 15590c-38,16 -76,26 -113,32 -83,13 -84,9 -114,-26 -71,-83 -120,-176 -146,-282 114,22 250,101 366,168 -104,-148 -246,-255 -408,-323l-109 0c22,68 48,130 77,184l-26 0c-29,-4 -52,-11 -68,-20 7,24 38,45 92,63 69,90 134,171 213,240 18,16 42,21 66,21 62,0 122,-22 170,-57z"/>
  <path class="fil37" d="M10119 15326c151,48 244,164 277,232l3 0c200,4 348,53 434,146 14,-57 -131,-232 -313,-325 -200,-101 -448,-173 -607,-175 -144,-2 -299,41 -447,117 -152,77 -338,216 -416,323 90,-52 277,-184 409,-234 138,-52 263,-75 353,-80 119,-36 222,-31 307,-4z"/>
  <path class="fil31" d="M8795 18513l95 -274 -156 0 -94 274 155 0z"/>
  <path class="fil31" d="M9009 18241l42 138 116 -138 -158 0z"/>
  <path class="fil31" d="M9303 18239l-94 274 155 0 95 -274 -156 0z"/>
  <path class="fil38" d="M7452 16594c-97,80 -97,246 -14,321 96,86 258,84 327,-41l-218 -59 -95 -221z"/>
  <path class="fil39" d="M9009 18241l158 0 -116 138 -42 -138zm57 176l225 -263 -131 399 227 0 267 -841 -212 0 -285 313 -101 -317 -196 0 -270 843 236 0 123 -400 66 266 51 0zm143 96l94 -274 156 0 -95 274 -155 0zm-475 -274l156 0 -95 274 -155 0 94 -274z"/>
  <path class="fil40" d="M8822 17447c63,12 126,23 190,29 106,9 217,8 322,8 125,0 248,4 372,-8 53,-6 105,-19 157,-30 -185,-35 -355,-27 -529,-27 -173,0 -380,-2 -512,28z"/>
  <circle class="fil0 str0" cx="8919" cy="16705" r="52"/>
  <circle class="fil0 str0" cx="8919" cy="16705" r="92"/>
  <circle class="fil0 str0" cx="8919" cy="16705" r="122"/>
  <path class="fil29" d="M8685 16797c-30,-66 -116,-127 -259,-185l20 73 239 112z"/>
  <path class="fil0 str0" d="M8685 16797c-30,-66 -116,-127 -259,-185l20 73 239 112z"/>
  <path class="fil41" d="M8298 16617l6 -45 -122 -43 116 88z"/>
  <path class="fil0 str0" d="M8298 16617l6 -45 -122 -43 116 88z"/>
  <path class="fil0 str0" d="M10558 15278c135,26 216,56 245,87l-97 -20 0 19 -148 -50 0 -36z"/>
  <path class="fil0 str0" d="M9812 15330c119,-36 222,-31 307,-4 194,62 292,235 290,275 -3,41 -30,94 -102,130 -67,34 -177,55 -339,47 -51,-2 -130,-10 -227,-25 -137,-41 -292,-74 -464,-99l0 -16 321 -24c175,65 329,97 462,95"/>
  <path class="fil42" d="M9367 15914c-73,45 -156,118 -202,193 61,-50 126,-93 198,-128 182,-87 395,-107 612,-131 -93,-15 -178,-22 -255,-21 -59,1 -114,6 -164,16 -72,14 -134,38 -189,71z"/>
  <path class="fil0 str1" d="M8718 17172l-274 -56c-37,99 -92,180 -164,242 864,-54 1715,-52 2551,5 -185,-215 -243,-438 -238,-646 5,-251 124,-534 382,-720l-77 -146 -72 43 12 59 -334 379 32 86c32,86 37,93 1,185 -36,94 -101,181 -179,256 -114,108 -254,229 -406,313l-1234 0z"/>
  <path class="fil0 str0" d="M8202 17094c23,-37 34,-67 34,-89l36 0c-13,35 -36,64 -70,89z"/>
  <path class="fil43" d="M7492 16687c-58,58 -46,145 10,180 36,22 104,31 158,-22l-112 -30 -56 -128z"/>
  <path class="fil39 str6" d="M10831 17363c-836,-57 -1687,-59 -2551,-5 72,-62 127,-143 164,-242l274 56 1234 0c152,-84 292,-205 406,-313 78,-75 143,-162 179,-256 36,-92 31,-99 -1,-185l-32 -86 334 -379 -12 -59 72 -43 77 146c-258,186 -377,469 -382,720 -5,208 53,431 238,646zm-2427 -314c-52,140 -142,266 -271,376 863,-59 1808,-59 2835,0 -215,-227 -323,-457 -320,-681 3,-245 130,-543 401,-723l-125 -253 -168 85 23 80 -345 390 74 191c-54,182 -243,382 -567,602l-1222 0 -315 -67z"/>
  <path class="fil0 str0" d="M8186 16994c-120,317 -415,406 -587,404 -103,-1 -204,-26 -292,-73 -74,-41 -169,-120 -221,-191 -116,-161 -123,-328 -122,-372 0,-44 17,-232 131,-379 59,-76 145,-144 244,-186 80,-33 169,-48 257,-48 125,0 283,26 428,176l-60 0c-134,-104 -264,-143 -382,-141 -159,4 -309,77 -413,183 -107,110 -159,250 -161,347 -3,134 38,257 56,294 25,50 137,231 324,304 184,72 546,73 760,-327l38 9z"/>
  <path class="fil31" d="M10525 18239l-94 274 155 0 95 -274 -156 0z"/>
  <path class="fil31" d="M10139 18403l46 -164 -160 0 -53 164 -258 0 57 -164 -158 0 -55 164c-15,66 5,102 59,107l428 0c41,-4 72,-40 94,-107z"/>
  <path class="fil31" d="M11566 18403l46 -164 -160 0 -53 164 -258 0 57 -164 -158 0 -55 164c-15,66 5,102 59,107l428 0c41,-4 72,-40 94,-107z"/>
  <path class="fil31" d="M12132 18506c54,-1 91,-22 108,-72l55 -191 -143 0 -60 166 -367 0 -37 97 444 0z"/>
  <path class="fil0 str7" d="M7639 16696l4 -14 -4 14z"/>
  <path class="fil29" d="M7639 16696l936 271 -932 -285 -4 14z"/>
  <path class="fil0 str0" d="M10925 17100c-41,-49 -75,-76 -102,-124 -51,-92 -76,-204 -77,-295 -1,-195 142,-470 349,-579l56 104c-154,109 -249,238 -287,387 -38,149 -26,376 61,507z"/>
  <ellipse class="fil0 str0" transform="matrix(0.903616 -0.428343 0.428343 0.903616 7351.73 16497.1)" rx="20" ry="25"/>
  <ellipse class="fil0 str0" transform="matrix(0.634585 -0.772853 0.772853 0.634585 7270.78 16598)" rx="20" ry="25"/>
  <ellipse class="fil0 str0" transform="matrix(0.308747 -0.951144 0.951144 0.308747 7234.37 16708.9)" rx="20" ry="25"/>
  <ellipse class="fil0 str0" transform="matrix(-0.149786 -0.988718 0.988718 -0.149786 7240.08 16839.4)" rx="20" ry="25"/>
  <ellipse class="fil0 str0" transform="matrix(-0.617786 -0.786346 0.786346 -0.617786 7295.66 16959.6)" rx="20" ry="25"/>
  <path class="fil44" d="M10819 15159c33,38 116,80 187,114 67,32 141,59 223,83 -86,-85 -189,-150 -301,-197l-109 0z"/>
  <path class="fil45" d="M7962 15568l274 -5 -47 -42 -300 0 73 47z"/>
  <path class="fil0 str0" d="M8236 15563l-278 6m298 188l-367 -236 300 0 241 216 0 44 -174 -24z"/>
  <path class="fil46" d="M8228 15475l203 207 12 0 0 -48 -153 -159 -62 0z"/>
  <path class="fil0 str0" d="M8431 15682l-203 -207 62 0 153 159 0 48 -12 0z"/>
  <path class="fil0 str0" d="M8839 15803l47 -42 -426 -26"/>
  <path class="fil47" d="M9750 17060l55 -24 177 -67 4 -3 -237 3 -286 93c97,0 192,-1 287,-2z"/>
  <path class="fil48" d="M10402 16578c-60,137 -220,289 -480,458l-117 0 -55 24c55,-1 110,-2 164,-3 103,-61 196,-134 270,-195 76,-64 145,-135 195,-209 31,-45 49,-77 68,-119 6,-17 6,-32 -1,-46l-50 -143 -29 30 53 154c-4,16 -10,32 -18,49z"/>
  <ellipse class="fil0 str0" transform="matrix(-0.783831 -0.620974 0.620974 -0.783831 7389.84 17052.9)" rx="20" ry="25"/>
  <ellipse class="fil0 str0" transform="matrix(-0.911325 -0.411688 0.411688 -0.911325 7526.56 17114.1)" rx="20" ry="25"/>
  <ellipse class="fil0 str0" transform="matrix(-0.930419 0.366497 -0.366497 -0.930419 7674.06 17113.8)" rx="20" ry="25"/>
  <path class="fil0 str0" d="M11266 16404c-148,88 -195,248 -195,350 0,66 19,146 51,210 33,66 79,117 130,155 52,39 103,65 152,76 60,13 180,14 238,-5 38,-13 104,-48 141,-77 99,-78 165,-228 161,-358 -2,-63 -33,-163 -92,-245 -48,-66 -148,-137 -201,-133l17 135c109,89 150,180 153,253 3,85 -40,176 -100,229 -130,114 -287,104 -417,-5 -68,-56 -105,-147 -107,-236 -2,-70 26,-160 123,-231l-54 -118zm13 29c-148,106 -177,236 -179,331 -1,121 63,241 151,310 46,36 100,70 146,85 58,19 155,20 215,5 48,-11 99,-35 151,-76 92,-73 159,-211 153,-333 -5,-105 -87,-285 -262,-349"/>
  <path class="fil49" d="M11250 16034l298 610c44,47 86,69 129,68l0 -32 0 -20 -23 -135 -65 -374c-8,3 -15,7 -23,11l-33 -4 -249 -81 -7 -9 -27 -34z"/>
  <path class="fil0 str0" d="M11548 16644c44,47 86,69 129,68l0 -52 -88 -509m-107 650c9,12 29,18 59,18 0,-13 -11,-22 -34,-28 32,-20 62,-22 88,-5l-46 -142 -299 -610m27 34c175,-30 340,-26 494,12m-238 78l33 4c84,-42 176,-77 278,-103 -171,-92 -368,-107 -592,-44l-2 19 34 43 249 81z"/>
  <path class="fil0 str0" d="M11413 16683c-21,57 -20,95 -7,124 26,56 110,82 158,39 22,17 42,-4 45,-10 3,-5 -3,-27 -26,-28 -2,0 -11,1 -15,4"/>
  <path class="fil0 str0" d="M11333 16543c-150,109 -134,323 4,436 72,60 146,65 167,66 81,6 147,-19 204,-74 50,-48 83,-141 80,-215 -2,-68 -40,-145 -134,-231"/>
  <ellipse class="fil0 str0" transform="matrix(-0.833764 0.55212 -0.55212 -0.833764 7813.2 17055.5)" rx="20" ry="25"/>
  <ellipse class="fil0 str0" transform="matrix(-0.682724 0.730677 -0.730677 -0.682724 7912.19 16962.5)" rx="20" ry="25"/>
  <path class="fil50" d="M7769 16873c-69,124 -232,126 -328,40 -83,-74 -82,-241 15,-321l-27 -63c-161,111 -145,251 -100,348 20,42 52,75 72,94 73,66 301,159 472,-70l-104 -28z"/>
  <path class="fil0 str0" d="M7453 16594c-96,80 -97,246 -14,321 96,86 258,84 327,-41m-340 -343l122 284 322 88c-170,228 -399,136 -471,69 -21,-19 -47,-47 -67,-89 -45,-94 -64,-238 94,-352"/>
  <path class="fil51 str0" d="M7258 16716c3,-10 -5,-22 -17,-26 -13,-4 -27,1 -30,11 -3,11 4,23 17,27 13,4 26,-1 30,-12z"/>
  <path class="fil51 str0" d="M7258 16614c11,8 25,8 32,0 7,-9 4,-23 -6,-31 -11,-9 -25,-9 -32,-1 -7,9 -4,23 6,32z"/>
  <path class="fil51 str0" d="M7334 16506c5,12 18,18 28,13 10,-4 14,-18 8,-30 -6,-13 -19,-19 -29,-14 -10,5 -13,18 -7,31z"/>
  <path class="fil51 str0" d="M7264 16836c-1,-11 -13,-18 -27,-16 -13,2 -23,12 -21,23 1,11 14,18 27,16 14,-2 23,-12 21,-23z"/>
  <path class="fil51 str0" d="M7315 16944c-7,-8 -21,-9 -32,0 -10,8 -14,22 -7,31 7,8 21,9 32,0 11,-8 14,-22 7,-31z"/>
  <path class="fil51 str0" d="M7405 17034c-9,-7 -22,-4 -31,6 -8,11 -8,25 1,32 8,7 22,4 31,-7 8,-10 8,-25 -1,-31z"/>
  <path class="fil51 str0" d="M7537 17092c-10,-5 -23,1 -29,14 -5,12 -2,26 8,30 11,5 23,-1 29,-14 5,-12 2,-26 -8,-30z"/>
  <path class="fil51 str0" d="M7665 17091c-10,4 -15,18 -10,30 5,13 18,20 28,16 10,-4 15,-18 10,-31 -5,-12 -18,-19 -28,-15z"/>
  <path class="fil51 str0" d="M7800 17035c-10,6 -11,20 -4,32 8,11 22,15 31,9 9,-6 10,-20 3,-32 -8,-11 -21,-15 -30,-9z"/>
  <path class="fil51 str0" d="M7894 16946c-7,8 -5,22 5,31 9,9 24,10 31,2 8,-8 6,-22 -4,-31 -10,-9 -24,-10 -32,-2z"/>
  <path class="fil52 str0" d="M7516 17136c-10,-4 -13,-18 -8,-30 6,-13 19,-19 29,-14 10,4 13,18 8,30 -6,13 -18,19 -29,14zm95 -59c-122,2 -221,-77 -262,-128 -32,-40 -72,-112 -69,-198 2,-77 24,-171 137,-251l-31 -85c-157,95 -209,243 -201,361 9,149 105,277 168,320 105,72 418,190 631,-164l-87 -23c-97,129 -199,167 -286,168zm288 -100c-10,-9 -12,-23 -5,-31 8,-8 22,-7 32,2 10,9 12,23 4,31 -7,8 -22,7 -31,-2zm-103 90c-7,-12 -6,-26 4,-32 9,-6 22,-2 30,9 7,12 6,26 -3,32 -9,6 -23,2 -31,-9zm-141 54c-5,-12 0,-26 10,-30 10,-4 23,3 28,15 5,13 0,27 -10,31 -10,4 -23,-3 -28,-16zm-250 -87c9,6 9,21 1,31 -9,11 -23,14 -31,7 -9,-7 -9,-21 -1,-32 9,-10 22,-13 31,-6zm-90 -90c7,9 4,23 -7,31 -11,9 -25,8 -32,0 -7,-9 -3,-23 7,-31 11,-9 25,-8 32,0zm47 -425c-10,5 -23,-1 -28,-13 -6,-13 -3,-26 7,-31 10,-5 23,1 29,14 6,12 2,26 -8,30zm-72 95c-7,8 -21,8 -32,0 -10,-9 -13,-23 -6,-32 7,-8 21,-8 32,1 10,8 13,22 6,31zm-49 76c12,4 20,16 17,26 -4,11 -17,16 -30,12 -13,-4 -20,-16 -17,-27 3,-10 17,-15 30,-11zm-4 130c14,-2 26,5 27,16 2,11 -7,21 -21,23 -13,2 -26,-5 -27,-16 -2,-11 8,-21 21,-23z"/>
  <path class="fil53 str0" d="M7984 16932c-213,354 -526,236 -631,164 -63,-43 -159,-171 -168,-320 -8,-118 44,-266 201,-361l-10 -29c-168,83 -227,253 -227,369 -1,167 115,307 181,360 52,41 161,89 283,88 138,0 293,-61 405,-262l-34 -9z"/>
  <path class="fil0 str8" d="M8784 15696l-295 -6 0 -16 295 22z"/>
  <path class="fil54" d="M8489 15690l295 6 -295 -22 0 16z"/>
  <path class="fil0 str0" d="M10126 16861c-15,-8 -38,-10 -67,-4 -24,4 -90,43 -144,63 -19,7 -74,5 -74,5"/>
  <path class="fil55" d="M10258 16440l-273 284 106 101c118,-108 187,-201 206,-280l-39 -105z"/>
  <path class="fil0 str0" d="M9986 16966l-237 3"/>
  <path class="fil0 str0" d="M10091 16825l-106 -101 273 -284"/>
  <path class="fil0 str0" d="M9907 16754l111 119"/>
  <path class="fil0 str0" d="M11609 16826c12,-41 -9,-102 -61,-182"/>
  <path class="fil0 str0" d="M11378 16621c-48,48 -69,93 -71,133 -6,88 36,170 120,204 33,13 69,14 82,15 81,3 163,-67 184,-143 14,-49 11,-103 -16,-150"/>
  <path class="fil56" d="M7981 16406l684 6 -59 -42 -750 -17 125 53z"/>
  <path class="fil0 str0" d="M8736 16719c46,94 98,134 147,145 39,8 78,1 108,-14 35,-18 58,-47 64,-59 6,-11 24,-43 25,-83 2,-36 -11,-80 -41,-110 -18,-19 -44,-42 -83,-50 -21,-5 -48,-4 -76,0l-89 -72"/>
  <ellipse class="fil0 str0" transform="matrix(-0.859294 0.511482 -0.511482 -0.859294 11273 16502.3)" rx="20" ry="25"/>
  <ellipse class="fil0 str0" transform="matrix(-0.527238 0.849717 -0.849717 -0.527238 11157.8 16712.7)" rx="20" ry="25"/>
  <ellipse class="fil0 str0" transform="matrix(0.318251 0.948007 -0.948007 0.318251 11163.1 16843.5)" rx="20" ry="25"/>
  <ellipse class="fil0 str0" transform="matrix(0.74702 0.664802 -0.664802 0.74702 11214 16956.6)" rx="20" ry="25"/>
  <ellipse class="fil0 str0" transform="matrix(0.74702 -0.664802 -0.664802 -0.74702 11195.6 16591.4)" rx="20" ry="25"/>
  <ellipse class="fil0 str0" transform="matrix(0.795357 0.606141 -0.606141 0.795357 11305.3 17052.1)" rx="20" ry="25"/>
  <ellipse class="fil0 str0" transform="matrix(0.949574 0.313543 -0.313543 0.949574 11443.8 17118.9)" rx="20" ry="25"/>
  <ellipse class="fil0 str0" transform="matrix(-0.965609 0.259998 0.259998 0.965609 11586.1 17118.9)" rx="20" ry="25"/>
  <ellipse class="fil0 str0" transform="matrix(-0.869749 0.662835 0.662835 0.869749 11727.7 17054.2)" rx="20" ry="25"/>
  <ellipse class="fil0 str0" transform="matrix(-0.813875 0.724298 0.724298 0.813875 11814.3 16958.8)" rx="20" ry="25"/>
  <ellipse class="fil0 str0" transform="matrix(-0.339447 1.01115 1.01115 0.339447 11861.2 16845)" rx="20" ry="25"/>
  <ellipse class="fil0 str0" transform="matrix(0.556829 0.897407 0.897407 -0.556829 11864.1 16707.7)" rx="20" ry="25"/>
  <ellipse class="fil0 str0" transform="matrix(-0.74702 -0.664802 0.664802 -0.74702 11812.4 16591.3)" rx="20" ry="25"/>
  <ellipse class="fil0 str0" transform="matrix(0.859294 0.511482 0.511482 -0.859294 11712.9 16481.5)" rx="20" ry="25"/>
  <path class="fil57" d="M8970 16409l360 432 392 0 40 -51 524 -675 59 -76 22 -29 270 -61 0 -8 -34 0c-77,6 -165,9 -264,9 -132,0 -333,-38 -456,-16 134,9 273,32 415,69l-588 752c-124,60 -242,56 -363,-3l-321 -396 -56 53z"/>
  <path class="fil58" d="M8484 16746c-190,-92 -400,-217 -642,-363l73 145c181,105 345,193 494,265 81,38 237,98 308,127 51,17 103,33 156,49l876 0 237 -3 140 -105c-14,-8 -35,-9 -61,-5 -5,2 -10,3 -15,5 1,-1 2,-2 3,-3 -8,3 -21,8 -35,15 -30,14 -69,35 -103,47 -19,7 -74,5 -74,5l-916 0c-127,-39 -275,-99 -441,-179z"/>
  <path class="fil59" d="M9968 15778c162,8 272,-13 339,-47 72,-36 99,-89 102,-130 2,-40 -96,-213 -290,-275 -85,-27 -188,-32 -307,4 7,0 14,0 20,0 62,-1 178,20 276,68 107,52 193,131 195,192 2,51 -57,134 -243,119 -133,2 -287,-30 -462,-95l-321 24 0 16c172,25 327,58 464,99 97,15 176,23 227,25z"/>
  <path class="fil60" d="M8971 16705c0,-29 -23,-52 -52,-52 -29,0 -52,23 -52,52 0,29 23,52 52,52 29,0 52,-23 52,-52z"/>
  <path class="fil61" d="M9229 15873l-390 -70 -379 -68 -12 51 695 178 47 12 -455 462 56 38c142,-146 252,-271 373,-369 0,0 1,0 1,0 46,-75 129,-148 202,-193 55,-33 117,-57 189,-71 10,-24 32,-37 64,-42 -146,-2 -244,-3 -341,-1 66,2 97,16 106,28 9,10 1,17 -13,26 -27,16 -72,21 -143,19z"/>
  <path class="fil62" d="M12123 16538c66,161 59,383 -26,576 168,-190 184,-370 148,-541 -35,-171 -155,-333 -359,-485l-183 62c226,93 355,227 420,388z"/>
  <path class="fil63" d="M10864 16593c38,-149 133,-278 287,-387l-56 -104c-207,109 -350,384 -349,579 1,91 26,203 77,295 27,48 61,75 102,124 -87,-131 -99,-358 -61,-507z"/>
  <path class="fil64" d="M10558 15314l148 50 0 -19 97 20c-29,-31 -110,-61 -245,-87l0 36z"/>
  <path class="fil51 str0" d="M11451 17096c-10,-4 -22,4 -26,17 -5,13 1,26 11,29 11,4 23,-4 27,-17 4,-13 -1,-26 -12,-29z"/>
  <path class="fil51 str0" d="M11321 17064c8,-11 8,-25 -1,-31 -9,-7 -22,-4 -31,7 -8,11 -7,25 1,32 9,6 23,3 31,-8z"/>
  <path class="fil51 str0" d="M11580 17095c-11,3 -17,16 -13,29 3,13 15,22 26,19 10,-3 16,-16 12,-29 -3,-13 -15,-22 -25,-19z"/>
  <path class="fil51 str0" d="M11711 17033c-9,7 -10,23 -1,35 9,11 24,15 34,8 10,-8 10,-23 1,-35 -9,-12 -24,-16 -34,-8z"/>
  <path class="fil51 str0" d="M11798 16973c10,11 25,14 34,6 9,-8 8,-24 -1,-35 -10,-11 -26,-13 -35,-5 -9,8 -8,23 2,34z"/>
  <path class="fil51 str0" d="M11854 16865c14,5 28,0 32,-12 4,-11 -4,-24 -18,-28 -14,-5 -28,0 -32,12 -3,11 5,24 18,28z"/>
  <path class="fil51 str0" d="M11842 16721c6,10 21,12 33,5 12,-8 17,-22 11,-32 -6,-10 -21,-12 -33,-4 -12,7 -17,21 -11,31z"/>
  <path class="fil51 str0" d="M11796 16610c8,7 22,5 31,-5 9,-11 10,-25 2,-32 -8,-7 -23,-5 -32,5 -9,10 -9,24 -1,32z"/>
  <path class="fil51 str0" d="M11700 16503c10,5 23,0 30,-11 7,-12 5,-26 -5,-32 -9,-5 -22,0 -29,11 -7,12 -5,26 4,32z"/>
  <path class="fil51 str0" d="M11286 16523c9,-5 11,-19 4,-31 -7,-12 -20,-16 -30,-11 -9,6 -11,20 -4,32 7,11 20,16 30,10z"/>
  <path class="fil51 str0" d="M11212 16610c8,-8 8,-22 -1,-32 -9,-10 -23,-12 -32,-5 -8,7 -7,22 2,32 9,10 23,12 31,5z"/>
  <path class="fil51 str0" d="M11168 16696c-11,-7 -25,-6 -31,4 -6,9 -1,23 10,30 12,7 26,5 32,-4 6,-10 1,-23 -11,-30z"/>
  <path class="fil65" d="M9260 15798l97 15 225 1 35 -13 -357 -3z"/>
  <path class="fil51 str0" d="M11186 16836c-3,-11 -16,-16 -29,-11 -13,4 -21,16 -17,26 3,11 17,16 29,12 13,-5 21,-17 17,-27z"/>
  <path class="fil51 str0" d="M11230 16938c-8,-7 -22,-5 -31,5 -9,10 -10,25 -1,32 8,7 22,5 31,-5 9,-10 10,-24 1,-32z"/>
  <path class="fil66 str0" d="M11451 17096c11,3 16,16 12,29 -4,13 -16,21 -27,17 -10,-3 -16,-16 -11,-29 4,-13 16,-21 26,-17zm-221 -158c9,8 8,22 -1,32 -9,10 -23,12 -31,5 -9,-7 -8,-22 1,-32 9,-10 23,-12 31,-5zm90 95c9,6 9,20 1,31 -8,11 -22,14 -31,8 -8,-7 -9,-21 -1,-32 9,-11 22,-14 31,-7zm401 -39c-130,114 -287,104 -417,-5 -68,-56 -105,-147 -107,-236 -2,-70 26,-160 123,-231l-41 -89c-148,106 -177,236 -179,331 -1,121 63,241 151,310 46,36 100,70 146,85 58,19 155,20 215,5 48,-11 99,-35 151,-76 92,-73 159,-211 153,-333 -5,-105 -87,-285 -262,-349l14 106c109,89 150,180 153,253 3,85 -40,176 -100,229zm-128 149c-11,3 -23,-6 -26,-19 -4,-13 2,-26 13,-29 10,-3 22,6 25,19 4,13 -2,26 -12,29zm151 -67c-10,7 -25,3 -34,-8 -9,-12 -8,-28 1,-35 10,-8 25,-4 34,8 9,12 9,27 -1,35zm-587 -251c13,-5 26,0 29,11 4,10 -4,22 -17,27 -12,4 -26,-1 -29,-12 -4,-10 4,-22 17,-26zm54 -247c9,10 9,24 1,32 -8,7 -22,5 -31,-5 -9,-10 -10,-25 -2,-32 9,-7 23,-5 32,5zm79 -86c7,12 5,26 -4,31 -10,6 -23,1 -30,-10 -7,-12 -5,-26 4,-32 10,-5 23,-1 30,11zm-122 204c12,7 17,20 11,30 -6,9 -20,11 -32,4 -11,-7 -16,-21 -10,-30 6,-10 20,-11 31,-4zm718 157c-4,12 -18,17 -32,12 -13,-4 -21,-17 -18,-28 4,-12 18,-17 32,-12 14,4 22,17 18,28zm-54 126c-9,8 -24,5 -34,-6 -10,-11 -11,-26 -2,-34 9,-8 25,-6 35,5 9,11 10,27 1,35zm-102 -487c-7,11 -20,16 -30,11 -9,-6 -11,-20 -4,-32 7,-11 20,-16 29,-11 10,6 12,20 5,32zm97 113c-9,10 -23,12 -31,5 -8,-8 -8,-22 1,-32 9,-10 24,-12 32,-5 8,7 7,21 -2,32zm48 121c-12,7 -27,5 -33,-5 -6,-10 -1,-24 11,-31 12,-8 27,-6 33,4 6,10 1,24 -11,32z"/>
  <path class="fil67 str0" d="M11612 17164c-60,15 -157,14 -215,-5 -46,-15 -100,-49 -146,-85 -88,-69 -152,-189 -151,-310 2,-95 31,-225 179,-331l-13 -29c-148,88 -195,248 -195,350 0,66 19,146 51,210 33,66 79,117 130,155 52,39 103,65 152,76 60,13 180,14 238,-5 38,-13 104,-48 141,-77 99,-78 165,-228 161,-358 -2,-63 -33,-163 -92,-245 -48,-66 -148,-137 -201,-133l3 29c175,64 257,244 262,349 6,122 -61,260 -153,333 -52,41 -103,65 -151,76z"/>
  <path class="fil68" d="M9863 17446c-185,-35 -355,-27 -529,-27 -173,0 -380,-2 -512,28 63,12 126,23 190,29 106,9 217,8 322,8 125,0 248,4 372,-8 53,-6 105,-19 157,-30z"/>
  <path class="fil69" d="M9907 16754l111 119c14,-7 27,-12 35,-15 13,-11 26,-22 38,-33l-106 -101 273 -284 -19 -49 -332 363z"/>
  <path class="fil70" d="M9527 16735c-129,0 -233,-105 -233,-234 0,-128 104,-233 233,-233 129,0 233,105 233,233 0,129 -104,234 -233,234zm269 -234c0,-148 -121,-268 -269,-268 -149,0 -269,120 -269,268 0,149 120,269 269,269 148,0 269,-120 269,-269z"/>
  <path class="fil0 str1" d="M9015 18417l51 0 225 -263 -131 399 227 0 267 -841 -212 0 -120 132 -165 181 -101 -317 -196 0 -270 843 236 0 123 -400 66 266z"/>
  <path class="fil0 str0" d="M8822 17447c63,12 126,23 190,29 106,9 217,8 322,8 125,0 248,4 372,-8 53,-6 105,-19 157,-30 -185,-35 -355,-27 -529,-27 -173,0 -380,-2 -512,28z"/>
  <path class="fil71" d="M11167 17230c-142,-101 -237,-275 -238,-472 -1,-140 51,-352 252,-472l-10 -36c-219,99 -284,362 -286,509 -4,212 100,408 258,517 79,55 145,87 220,104 62,15 141,18 153,18 17,1 103,-4 199,-38 69,-25 141,-68 207,-120 134,-107 208,-291 208,-462 0,-177 -141,-563 -507,-594l0 35c343,49 463,388 460,552 -2,155 -77,343 -199,442 -61,50 -138,88 -202,109 -88,29 -156,29 -172,31 -16,2 -95,-2 -183,-34 -53,-19 -109,-52 -160,-89z"/>
  <path class="fil0 str0" d="M11623 16184c366,31 507,417 507,594 0,171 -74,355 -208,462 -66,52 -138,95 -207,120 -96,34 -182,39 -199,38 -12,0 -91,-3 -153,-18 -75,-17 -141,-49 -220,-104 -158,-109 -262,-305 -258,-517 2,-147 67,-410 286,-509l10 36c-201,120 -253,332 -252,472 1,197 96,371 238,472 51,37 107,70 160,89 88,32 167,36 183,34 16,-2 84,-2 172,-31 64,-21 141,-59 202,-109 122,-99 197,-287 199,-442 3,-164 -117,-503 -460,-552l0 -35z"/>
  <path class="fil0 str0" d="M7897 16909c-97,129 -199,167 -286,168 -122,2 -221,-77 -262,-128 -32,-40 -72,-112 -69,-198 2,-77 24,-171 137,-251l-41 -114c-168,83 -227,253 -227,369 -1,167 115,307 181,360 52,41 161,89 283,88 138,0 293,-61 405,-262l-121 -32zm3172 -1246l137 279c552,-156 897,145 1029,384 145,262 233,816 -326,1185l766 109 -133 359 -120 0 0 8c64,68 83,132 57,191l-124 362c-30,56 -87,99 -171,131l-5971 0 291 -845 0 -15 -168 -185 865 -112c-331,-203 -458,-517 -469,-737 -17,-332 216,-590 343,-703 197,-176 865,-373 1265,253l268 0 321 -353 -629 -155 -71 0 -575 -365 669 0 195 179 428 0c300,-307 607,-467 926,-480 205,-9 408,47 630,149l-23 -90 208 32 -30 -76 75 0 -27 -57 251 0c153,60 321,205 505,434 -41,14 -52,40 -34,77 -110,48 -198,72 -262,72 -41,0 -67,-16 -96,-31zm-3683 752c-157,95 -209,243 -201,361 9,149 105,277 168,320 105,72 418,190 631,-164m3083 -1268l137 278c552,-156 897,146 1029,385 145,262 233,815 -326,1185l766 109 -133 358 -120 0 0 9c43,49 65,149 57,191 -66,194 -83,413 -295,492l-5971 0 291 -845 0 -15 -168 -185 865 -111c-331,-204 -458,-518 -469,-738 -17,-332 216,-590 343,-702 198,-176 865,-373 1265,252l268 0 321 -352 -629 -156 -71 0 -575 -364 669 0 195 178 428 0c296,-305 604,-465 926,-480 205,-9 408,47 630,149l-23 -89 208 31 -30 -76 75 0 -27 -57 251 0c153,61 321,206 505,434 -41,14 -52,40 -34,78 -110,48 -198,72 -262,72 -41,-1 -67,-16 -96,-31zm992 1809c412,-328 392,-819 274,-1082 -127,-281 -476,-655 -1096,-509l-75 -125c114,-16 226,-48 338,-95l-14 -39 88 -46c-244,-297 -446,-470 -606,-519l-377 0 24 115 -220 -35 13 65c-179,-70 -351,-105 -516,-106 -213,-2 -412,71 -602,183 -131,78 -258,166 -377,297l-375 0 -198 -178 -842 0 0 26 19 0 702 462 27 0 24 -14 544 135 -252 260 -185 0c-559,-728 -1277,-366 -1478,-114 -175,219 -456,745 140,1320l-825 101 222 259 -304 894 6049 0c92,-29 143,-70 190,-123 67,-73 78,-148 110,-225 33,-81 67,-219 64,-261 -1,-25 -8,-49 -18,-72l53 0 178 -475 -699 -99z"/>
  <path class="fil0 str0" d="M9620 15801c-32,5 -54,18 -64,42"/>
  <path class="fil0 str0" d="M10264 15820c255,5 437,-26 547,-94 -50,-83 -190,-139 -412,-166l0 -2c200,4 348,53 434,146 14,-57 -131,-232 -313,-325 -200,-101 -448,-173 -607,-175 -144,-2 -299,41 -447,117 -152,77 -338,216 -416,323 90,-52 277,-184 409,-234 149,-56 283,-79 373,-80 62,-1 178,20 276,68 107,52 193,131 195,192 2,51 -57,134 -243,119 140,-28 179,-78 118,-151 -120,-99 -261,-123 -394,-123 -196,0 -530,109 -609,290 -1,47 25,72 79,75 207,6 157,79 -25,73l-769 -138 -12 51 742 190 -455 462 56 38c214,-220 357,-394 572,-497 182,-87 395,-107 612,-131 -93,-15 -178,-22 -255,-21 -144,2 -260,31 -353,87 -73,45 -156,118 -203,193m-1183 299l684 6m71 307c-69,-63 -279,-149 -630,-260l-250 -106 750 17 203 146 -161 -135 375 -417 120 0m-1094 471l656 6"/>
  <path class="fil0 str0" d="M10367 16375l-19 -41 352 -410 0 -45 -304 0c-483,0 -766,20 -851,60 236,-25 487,-4 753,64l-588 752c-124,60 -242,56 -363,-3l-321 -396 -56 53 360 432 392 0 645 -831 270 -61 0 -8 -34 0c-77,6 -165,9 -264,9 -132,0 -333,-38 -456,-16m462 105l263 -52 -823 900 56 38 -916 0c-127,-39 -275,-99 -441,-179 -190,-92 -400,-217 -642,-363l121 240 359 158 49 44 -441 -157 -140 -294m532 407c170,65 357,128 551,188l876 0 -286 93m-1673 -688c-110,-58 -247,-73 -412,-44 77,164 140,315 188,452l1160 275c416,7 812,7 1188,0 103,-61 196,-134 270,-195 76,-64 145,-135 195,-209 31,-45 49,-77 68,-119 6,-17 6,-32 -1,-46l-50 -143 -29 30 53 154c-41,149 -207,318 -498,507l-117 0 177 -67 144 -108m160 -746l205 0m-1774 805c-71,-29 -227,-89 -308,-127 -149,-72 -313,-160 -494,-265m2487 50c-66,131 -183,226 -352,283 144,-123 226,-229 247,-316l-58 -154"/>
  <path class="fil72" d="M9883 15934c123,-22 324,16 456,16 99,0 187,-3 264,-9l34 0 0 8 -270 61 -22 29 263 -52 -117 128 -252 276 19 49 39 105c-19,79 -88,172 -206,280 -12,11 -25,22 -38,33 2,0 4,-1 6,-1 2,-1 4,-1 6,-1 161,-58 273,-151 337,-278 8,-17 14,-33 18,-49l-53 -154 -19 -41 352 -410 0 -45 -304 0c-463,0 -743,19 -840,55l-11 5c80,-9 160,-12 241,-10 7,0 13,0 20,1 22,0 43,1 65,3 4,0 8,0 12,1z"/>
  <path class="fil0 str0" d="M10797 15455c41,2 102,30 104,32 45,86 113,192 191,338 60,114 127,253 191,426l-51 29 -435 -825zm476 770c-258,-480 -386,-743 -408,-730 -9,6 2,57 34,152"/>
  <path class="fil0 str0" d="M6987 17093c-354,-432 -20,-846 176,-980 206,-140 695,-284 1070,212l-154 0c-165,-170 -342,-218 -493,-218 -190,-1 -351,89 -450,179 -152,139 -297,425 -149,807z"/>
 </g>
</svg>
