<?xml version="1.0" encoding="UTF-8"?>
<!DOCTYPE svg PUBLIC "-//W3C//DTD SVG 1.0//EN" "http://www.w3.org/TR/2001/REC-SVG-20010904/DTD/svg10.dtd">
<!-- Creator: CorelDRAW X7 -->
<svg xmlns="http://www.w3.org/2000/svg" xml:space="preserve" width="297mm" height="210mm" version="1.0" style="shape-rendering:geometricPrecision; text-rendering:geometricPrecision; image-rendering:optimizeQuality; fill-rule:evenodd; clip-rule:evenodd"
viewBox="0 0 29700 21000"
 xmlns:xlink="http://www.w3.org/1999/xlink">
 <defs>
  <style type="text/css">
   <![CDATA[
    .str3 {stroke:#373435;stroke-width:20}
    .str4 {stroke:#122DBC;stroke-width:20}
    .str0 {stroke:#373435;stroke-width:10}
    .str1 {stroke:#373435;stroke-width:7.62}
    .str2 {stroke:#373435;stroke-width:7.62}
    .str6 {stroke:#040F4D;stroke-width:7.62}
    .str5 {stroke:#122DBC;stroke-width:7.62}
    .fil6 {fill:none}
    .fil37 {fill:#03114E}
    .fil0 {fill:#040F4D}
    .fil32 {fill:#122DBC}
    .fil33 {fill:#274ED7}
    .fil4 {fill:#2A4AD9}
    .fil22 {fill:#2A4ADB}
    .fil39 {fill:#2A4CD2}
    .fil2 {fill:#2A4CD2}
    .fil40 {fill:#3F63DE}
    .fil42 {fill:#45A7CA}
    .fil16 {fill:#48ADCB}
    .fil17 {fill:#52A3D2}
    .fil10 {fill:#5CA0C3}
    .fil14 {fill:#64A4D2}
    .fil29 {fill:#66A1C3}
    .fil26 {fill:#7A8DB8}
    .fil8 {fill:#7B92BE}
    .fil13 {fill:#7D8EC6}
    .fil7 {fill:#868DBD}
    .fil41 {fill:#8C99C6}
    .fil15 {fill:#9B82C3}
    .fil30 {fill:#A685B4}
    .fil11 {fill:#AE7BB7}
    .fil18 {fill:#BC6ABE}
    .fil28 {fill:#BE7CAC}
    .fil19 {fill:#C15CAC}
    .fil12 {fill:#D863A7}
    .fil24 {fill:#DF69B3}
    .fil43 {fill:#EB5EAC}
    .fil31 {fill:#EB5F9E}
    .fil27 {fill:#EC5DAD}
    .fil44 {fill:#EC5EA6}
    .fil25 {fill:#F657A7}
    .fil36 {fill:#FBF9FA}
    .fil34 {fill:#FBF9FF}
    .fil21 {fill:#FBF9FF}
    .fil35 {fill:#FDFBFF}
    .fil38 {fill:#FFFAFF}
    .fil20 {fill:#FFFAFF}
    .fil3 {fill:url(#id1)}
    .fil45 {fill:url(#id2)}
    .fil5 {fill:url(#id3)}
    .fil1 {fill:url(#id4)}
    .fil9 {fill:url(#id5)}
    .fil23 {fill:url(#id6)}
   ]]>
  </style>
   <clipPath id="id0">
    <rect x="38000" y="14830" width="8670" height="8670"/>
   </clipPath>
  <linearGradient id="id1" gradientUnits="userSpaceOnUse" x1="12973.1" y1="8214.16" x2="13430.9" y2="8010.43">
   <stop offset="0" style="stop-opacity:1; stop-color:#5CA0C3"/>
   <stop offset="1" style="stop-opacity:1; stop-color:#7D8EC6"/>
  </linearGradient>
  <linearGradient id="id2" gradientUnits="userSpaceOnUse" x1="16052.3" y1="8794.69" x2="14826.3" y2="8794.65">
   <stop offset="0" style="stop-opacity:1; stop-color:#EB5EAC"/>
   <stop offset="1" style="stop-opacity:1; stop-color:#9E82B9"/>
  </linearGradient>
  <linearGradient id="id3" gradientUnits="userSpaceOnUse" x1="13562.8" y1="7955.56" x2="14063" y2="7955.52">
   <stop offset="0" style="stop-opacity:1; stop-color:#7D8EC6"/>
   <stop offset="0.819608" style="stop-opacity:1; stop-color:#8F83CF"/>
   <stop offset="1" style="stop-opacity:1; stop-color:#A178D8"/>
  </linearGradient>
  <linearGradient id="id4" gradientUnits="userSpaceOnUse" x1="12289.4" y1="8455.09" x2="16628.1" y2="8455.05">
   <stop offset="0" style="stop-opacity:1; stop-color:#31B3C9"/>
   <stop offset="0.439216" style="stop-opacity:1; stop-color:#888CBD"/>
   <stop offset="1" style="stop-opacity:1; stop-color:#DF65B0"/>
  </linearGradient>
  <linearGradient id="id5" gradientUnits="userSpaceOnUse" x1="15453.4" y1="9094.48" x2="14290.8" y2="9094.44">
   <stop offset="0" style="stop-opacity:1; stop-color:#EC5EA6"/>
   <stop offset="1" style="stop-opacity:1; stop-color:#8B8BBC"/>
  </linearGradient>
  <linearGradient id="id6" gradientUnits="userSpaceOnUse" x1="14304.1" y1="6413.02" x2="14309.7" y2="5766.7">
   <stop offset="0" style="stop-opacity:1; stop-color:#2A4ADB"/>
   <stop offset="1" style="stop-opacity:1; stop-color:#2A4ADB"/>
  </linearGradient>
 </defs>
 <g id="Camada_x0020_1">
  <metadata id="CorelCorpID_0Corel-Layer"/>
  <path class="fil0" d="M14685 9369l0 495 283 407 0 14 116 -2 -293 -419 0 -496 -106 1z"/>
  <path class="fil0" d="M15831 9115c2,-56 48,-101 105,-101 58,0 104,47 104,104 0,58 -46,105 -104,105 -58,0 -105,-47 -105,-105 0,-1 0,-2 0,-3zm-832 -36l-282 0 -105 106 -322 0 0 -70 304 0 105 -101 326 0 137 126 88 0 84 -84 127 0c15,-39 53,-66 97,-66 44,0 82,27 97,66 5,12 8,25 8,38 0,7 -1,14 -2,21 -10,48 -52,84 -103,84 -51,0 -93,-36 -103,-84l-84 0 -93 94 -150 0 -129 -130zm936 -133l-1109 0 0 -67 1085 0 147 -131c15,-38 53,-64 96,-64 58,0 105,47 105,105 0,57 -47,104 -105,104 -45,0 -83,-28 -98,-68l-121 121zm-122 -771c15,-40 53,-69 99,-69 57,0 104,47 104,105 0,57 -47,104 -104,104 -58,0 -105,-47 -105,-104 0,-13 2,-25 6,-36zm35 661l-1356 0c0,5 1,10 1,15 0,57 -47,104 -105,104 -58,0 -105,-47 -105,-104 0,-58 47,-105 105,-105 24,0 46,8 64,21l1365 0 253 -254 188 0c-22,-47 -61,-98 -116,-152l-77 0 -284 289 -177 0 -86 -74 -213 0 -132 133 -1161 0 -126 118 -176 0c0,38 -20,72 -51,90 -16,10 -35,15 -55,15 -58,0 -104,-47 -104,-104 0,-39 20,-73 52,-91 15,-9 34,-15 54,-15 32,0 61,15 80,38l178 0 119 -119 1165 0 141 -136 257 0 78 78 119 0 292 -292 76 0c8,-236 -91,-388 -298,-456l-186 0 -116 110 -678 0 0 -68 666 0 121 -120 154 0c-4,-124 -69,-232 -192,-323l0 172 -188 189 -137 0 0 -175c-11,-8 -21,-18 -28,-30l-203 190 -276 0 0 388 45 0 172 -172 590 0c7,-51 51,-89 103,-89 58,0 105,47 105,104 0,58 -47,105 -105,105 -38,0 -71,-20 -90,-51l-575 0 -168 169 -138 0 0 -525 321 0 153 -151 -109 -103 -200 187 -256 0 0 694 263 0 175 -162 244 0c16,-38 53,-64 96,-64 43,0 81,27 97,65 5,12 7,26 7,40 0,58 -47,104 -104,104 -50,0 -92,-35 -102,-82l-208 0 -199 188 -1255 0 -420 394 0 139 454 -444 1379 0 129 -129 420 0c16,-38 54,-66 98,-66 57,0 104,47 104,105 0,58 -47,105 -104,105 -48,0 -88,-32 -101,-76l-389 0 -130 130 -1369 0 -272 261 0 11 132 133 482 0c17,-36 53,-62 96,-62 58,0 105,47 105,105 0,58 -47,104 -105,104 -47,0 -87,-31 -100,-74l-503 0 -161 -161 -175 161c12,186 174,356 325,413 138,52 414,68 517,-48l110 0 18 16 358 0 0 432 39 39 196 354 0 13 99 6 -254 -405 0 -509 -717 0c-9,48 -52,85 -103,85 -57,0 -104,-47 -104,-105 0,-57 47,-104 104,-104 39,0 73,21 91,53l281 0 -83 -83 -536 0c-6,52 -50,92 -103,92 -58,0 -105,-47 -105,-104 0,-58 47,-105 105,-105 37,0 70,20 88,49l584 0 134 134 1117 0 98 -98 53 0 96 104 301 0c299,-82 429,-319 389,-711l-175 0 -257 257z"/>
  <path class="fil0" d="M14628 10280l-165 -311 -392 -435c-146,79 -304,96 -435,83 -198,-20 -454,-179 -528,-378 -11,-30 -16,-58 -25,-86 -266,82 -586,-59 -750,-324 -100,-160 -151,-482 9,-635 7,-209 98,-352 273,-428 16,-167 121,-305 235,-391 105,-80 231,-132 407,-123 137,-191 314,-292 502,-319 150,-22 332,-4 490,87 207,-125 448,-130 633,-79 151,41 320,128 414,284 149,-3 296,68 396,154 99,86 174,201 203,363 123,48 195,127 251,220 56,93 83,205 83,336 66,63 99,117 128,182 32,69 57,151 50,284 -14,242 -175,564 -478,630 -19,202 -154,364 -289,458 -169,118 -407,176 -690,81l248 336 0 16 -114 -2 -116 3 -124 0 -99 -6 -117 0zm-2203 -184c17,26 34,51 53,78 10,14 20,29 30,43l-63 0 -480 0 -138 0 -363 0 -83 0 -300 318 0 975 268 265 711 0c308,213 545,376 852,502 449,184 910,265 1373,264 562,-2 1126,-130 1676,-406 202,-102 385,-230 585,-369l688 0 278 -262 0 -769c200,-304 308,-636 411,-947 113,-343 114,-728 123,-1044 24,-870 -346,-1641 -712,-2149 -270,-376 -688,-783 -1213,-1092 -374,-221 -1232,-519 -1857,-501 -427,11 -1059,128 -1518,349 -261,125 -642,372 -855,574l224 0c251,-166 519,-365 802,-470 446,-166 878,-287 1355,-287 703,7 1516,236 2086,656 324,239 626,549 905,929l-66 39 -1000 596 -311 0c-210,-165 -363,-307 -580,-407 -657,-300 -1401,-290 -2035,14 -136,65 -275,153 -386,248 -56,47 -75,91 -143,145l-1377 0 -568 -607 -7 211 131 145c-559,1161 -540,2299 58,3414l106 -111c-1,-3 -3,-6 -5,-9 -125,-219 -230,-482 -315,-791l1342 -232 7 31c7,29 15,59 25,89 5,20 12,39 19,58 12,34 26,69 41,104 9,21 19,43 30,65 19,41 41,82 64,124l27 49 33 56 1 0 30 49 0 1c13,20 27,41 41,62zm-229 -2065c-12,29 -24,59 -36,89 -11,31 -23,62 -33,94l0 1 0 0 -16 50 -1346 -267c44,-235 133,-477 268,-728l203 221 80 87 117 0 163 0 162 1 124 0 314 0 154 1 115 0c-14,18 -29,36 -42,54 -14,18 -27,37 -40,56 -26,36 -50,74 -72,113 0,0 0,0 0,0l-1 1 -21 36c-34,61 -65,125 -93,191zm4854 229l-575 73 -5 -23c-8,-31 -17,-63 -27,-94 -9,-30 -19,-60 -29,-89 -11,-31 -23,-62 -35,-92 -10,-23 -19,-45 -30,-67 -40,-88 -87,-172 -140,-250 -12,-18 -24,-35 -37,-53 -12,-17 -25,-33 -38,-49l-32 -40 955 -557 274 -160c291,465 466,898 524,1299l-322 41 -428 54 -55 7zm-5662 2166l5823 0 173 173 -2 838 -179 179 -5813 0 -166 -166 0 -860 164 -164zm1781 1353l2266 0 666 0 156 0c-193,119 -334,218 -528,303 -868,378 -1802,417 -2662,92 -253,-96 -473,-238 -726,-395l152 0 676 0zm3220 -2102c14,-36 28,-73 40,-110 9,-28 18,-56 26,-84l13 -45 230 53 95 22 981 229c-82,312 -184,562 -304,751l-44 -46 -211 -222 -564 0 -127 0 -224 0 -10 0 -121 0 -102 0c15,-18 29,-35 43,-53 15,-19 29,-37 42,-56 16,-22 31,-44 46,-66 0,0 0,0 0,0l22 -34c18,-30 37,-61 54,-92 14,-26 28,-52 41,-78 16,-33 31,-66 46,-100 10,-23 19,-46 28,-69zm1428 -58l-1320 -291c8,-32 15,-66 21,-99 5,-27 10,-55 13,-82 3,-25 6,-50 8,-75 7,-77 10,-156 7,-236 0,0 0,0 0,0 -1,-20 -2,-39 -3,-58 -2,-43 -6,-86 -11,-129 -3,-24 -6,-48 -10,-73 -3,-23 -7,-46 -11,-69 -5,-23 -9,-45 -14,-68l162 -20 564 -67 57 -7 600 -72c58,517 42,945 -46,1285 -5,21 -11,41 -17,61zm-5772 -893c0,13 -1,27 -1,40 -2,40 -2,80 -1,120l1 58c1,12 1,24 2,36 1,25 3,50 5,74 3,31 6,62 10,93 7,48 15,96 24,143l-1339 220c-93,-424 -101,-848 -24,-1272 8,-39 15,-78 24,-117l576 110 11 2 752 143 -8 48 -7 48c-4,32 -8,63 -12,94 -3,28 -6,56 -8,84 -2,26 -3,51 -5,76z"/>
  <path class="fil1" d="M13130 8361l-757 0c22,-47 50,-87 80,-109l0 -66c24,-145 62,-228 120,-262 0,-3 0,-6 0,-10 0,-57 47,-104 105,-104 51,0 94,37 103,87l528 0 364 -354 0 -472c30,-16 59,-27 88,-31l0 629c25,9 46,27 58,50l14 -14 0 -672c122,-12 236,10 340,67l0 1231 -595 0 -118 -104 -32 0 -269 259 -715 0 0 154 71 0 0 -82 663 0 270 -251 63 63 -319 317 -417 0c7,14 11,30 11,47 0,9 -1,17 -3,25l324 0 -182 168 -349 0c-27,-20 -51,-41 -73,-63 -36,-39 -66,-82 -88,-130 -53,-113 -57,-183 -52,-300l790 0 249 -233 479 0 56 -63c-20,-8 -36,-21 -48,-38l-25 25 -489 0 -245 236zm62 458l420 -394 1255 0 199 -188 208 0c-2,-7 -3,-14 -3,-22 0,-15 3,-29 9,-41l-244 0 -175 162 -263 0 0 -694 256 0 200 -187 109 103 -153 151 -321 0 0 525 138 0 168 -169 575 0c-9,-16 -14,-34 -14,-54 0,-5 0,-10 1,-15l-590 0 -172 172 -45 0 0 -388 276 0 203 -190c-10,-16 -16,-35 -16,-55 0,-10 2,-20 4,-29l-14 0 -91 -100 77 -78c147,-7 256,15 329,66l0 182 -156 156 -37 0 0 -92c-2,0 -5,0 -7,0 -13,0 -43,-7 -60,-19 -1,0 -1,-1 -1,-1l0 175 137 0 188 -189 0 -172c123,91 188,199 192,323l-154 0 -121 120 -666 0 0 68 678 0 116 -110 186 0c207,68 306,220 298,456l-76 0 -292 292 -119 0 -78 -78 -257 0 -141 136 -1165 0 -119 119 -178 0c15,18 24,41 24,67l176 0 126 -118 1161 0 132 -133 213 0 86 74 177 0 284 -289 77 0c55,54 94,105 116,152l-188 0 -253 254 -1365 0c21,17 36,41 40,69l1356 0 257 -257 175 0c40,392 -90,629 -389,711l-301 0 -96 -104 -53 0 -98 98 -1117 0 -134 -134 -584 0c10,16 16,35 16,56 0,4 0,8 -1,12l536 0 83 83 -281 0c9,15 14,33 14,51 0,7 -1,14 -2,20l717 0 0 509 254 405 124 -1 0 -14 -283 -407 0 -495 106 -1 0 496 293 419 114 2 0 -16 -248 -336c283,95 521,37 690,-81 135,-94 270,-256 289,-458 303,-66 464,-388 478,-630 4,-85 -6,-163 -29,-233 -6,-18 -13,-35 -21,-51 -11,-24 -22,-47 -35,-69 0,0 -1,0 -1,0 -25,-41 -56,-78 -92,-113 0,-131 -27,-243 -83,-336 -56,-93 -128,-172 -251,-220 -29,-162 -104,-277 -203,-363 -100,-86 -247,-157 -396,-154 -94,-156 -263,-243 -414,-284 -185,-51 -426,-46 -633,79 -158,-91 -340,-109 -490,-87 -188,27 -365,128 -502,319 -176,-9 -302,43 -407,123 -114,86 -219,224 -235,391 -175,76 -266,219 -273,428 -160,153 -109,475 -9,635 164,265 484,406 750,324 9,28 14,56 25,86 74,199 330,358 528,378 131,13 289,-4 435,-83l392 435 165 311 117 0 0 -13 -196 -354 -39 -39 0 -432 -358 0 -18 -16 -110 0c-103,116 -379,100 -517,48 -151,-57 -313,-227 -325,-413l175 -161 161 161 503 0c-3,-10 -5,-20 -5,-30 0,-15 4,-30 9,-43l-482 0 -132 -133 0 -11 272 -261 1369 0 130 -130 389 0c-2,-9 -4,-19 -4,-29 0,-14 3,-27 7,-39l-420 0 -129 129 -1379 0 -454 444 0 -139zm47 -1126l-293 0 -116 118 -104 0c5,-39 9,-75 19,-109 19,-58 46,-109 82,-153 81,-97 217,-188 377,-190l-92 92c21,7 39,21 51,38 53,-44 101,-85 148,-118l38 0 0 -43c24,-51 56,-92 96,-125l0 284 -206 206zm43 134l-376 0 57 -61 302 0 256 -252 0 -370c28,-22 56,-39 84,-53l0 413 -323 323zm-323 1172l113 -113 0 165c-170,29 -299,12 -387,-52l274 0zm1298 -667l0 -1183 137 -78 0 847 -72 73 0 341 -65 0zm135 3l0 -312 72 -60 0 -914c207,-57 396,-32 567,75l-203 203c18,11 33,28 41,48l216 -216 87 86 -337 327 -189 0 0 -277c-6,1 -12,2 -19,2 -18,0 -35,-5 -50,-13l0 316 -47 14 0 721 -138 0zm475 1460l0 -434 91 0 0 463 -91 -29zm154 45l0 -479 97 0 0 505 -97 -26zm166 38l0 -515 93 0 0 515 -93 0zm160 -14l0 -377 94 97c17,-13 38,-22 61,-23l-155 -175 0 -17 121 -110 72 79c16,-10 35,-16 55,-16 37,0 69,19 88,47l145 1c-19,116 -70,214 -137,292 -80,95 -203,176 -344,202zm-1138 -331l217 0 0 239 -217 -239z"/>
  <path class="fil2" d="M10278 8207l24 0 0 -32 -50 0 0 21 26 11z"/>
  <path class="fil3" d="M13183 8232l189 -175 41 0c-15,-15 -26,-36 -29,-59l-58 0 -161 161 -169 0c4,10 5,21 5,33 0,14 -2,27 -8,40l190 0z"/>
  <path class="fil2" d="M13215 5344c-375,118 -619,223 -1105,579l159 0c718,-580 1775,-757 2584,-627 838,135 1715,612 2344,1494l66 -39c-338,-458 -697,-816 -1105,-1061 -221,-133 -449,-232 -680,-310 -208,-70 -420,-125 -627,-157 -175,-27 -358,-56 -543,-57 -356,-1 -724,61 -1093,178z"/>
  <path class="fil4" d="M13135 6788c376,-207 788,-287 1165,-290 8,0 15,0 23,0 2,0 4,0 7,0 610,4 1285,251 1848,829l790 -493c-334,-457 -764,-781 -1184,-1001 -247,-129 -502,-222 -760,-281 -1,0 -3,0 -5,-1 -108,-24 -217,-43 -326,-56 -8,-1 -15,-2 -23,-3 -36,-4 -73,-7 -111,-10 -171,-14 -346,-14 -524,1 -31,2 -62,5 -92,9 -118,13 -237,32 -356,59 -2,1 -3,1 -4,1 -362,82 -727,229 -1080,456l599 798c11,-6 22,-12 33,-18z"/>
  <path class="fil5" d="M13589 7961l218 0 195 -191 0 -390c-7,2 -15,3 -23,3 -16,0 -31,-4 -44,-10l0 368 -164 156 -225 0c22,14 38,37 43,64z"/>
  <path class="fil6 str0" d="M13979 7173c58,0 105,47 105,105 0,58 -47,105 -105,105 -58,0 -104,-47 -104,-105 0,-58 46,-105 104,-105zm-433 724l225 0 164 -156 0 -368m-939 786l169 0 161 -161 58 0m-487 89c58,0 104,47 104,105 0,57 -46,104 -104,104 -58,0 -105,-47 -105,-104 0,-58 47,-105 105,-105zm516 -30l-41 0 -189 175 -190 0m494 -353c58,0 105,47 105,104 0,58 -47,105 -105,105 -58,0 -104,-47 -104,-105 0,-57 46,-104 104,-104zm515 -499l0 390 -195 191 -218 0"/>
  <path class="fil7" d="M14124 7974l0 -608 -61 0 0 579 -18 18c18,16 30,38 34,63l45 -52z"/>
  <path class="fil0" d="M13761 7669l0 -629c-29,4 -58,15 -88,31l0 472 -364 354 -528 0c1,5 1,11 1,17 0,58 -47,105 -104,105 -55,0 -99,-41 -105,-95 -58,34 -96,117 -120,262l0 66c-30,22 -58,62 -80,109l757 0 245 -236 489 0 25 -25c-12,-17 -19,-38 -19,-60 0,-57 47,-104 105,-104 27,0 52,10 70,27l18 -18 0 -579 61 0 0 608 -45 52c0,5 1,9 1,14 0,58 -47,105 -105,105 -13,0 -26,-3 -38,-7l-56 63 -479 0 -249 233 -790 0c-5,117 -1,187 52,300 22,48 52,91 88,130 22,22 46,43 73,63l349 0 182 -168 -324 0c-11,46 -53,80 -102,80 -58,0 -104,-47 -104,-105 0,-58 46,-105 104,-105 41,0 77,24 94,58l417 0 319 -317 -63 -63 -270 251 -663 0 0 82 -71 0 0 -154 715 0 269 -259 32 0 118 104 595 0 0 -1231c-104,-57 -218,-79 -340,-67l0 672 -14 14c7,14 12,31 12,49 0,57 -47,104 -105,104 -58,0 -104,-47 -104,-104 0,-58 46,-105 104,-105 12,0 24,2 35,6zm174 -296c-36,-17 -60,-53 -60,-95 0,-58 46,-105 104,-105 58,0 105,47 105,105 0,50 -35,91 -82,102l0 390 -195 191 -218 0c2,7 3,15 3,22 0,58 -47,105 -105,105 -29,0 -55,-12 -74,-31l-41 0 -189 175 -190 0c-15,38 -53,64 -96,64 -58,0 -105,-47 -105,-104 0,-58 47,-105 105,-105 46,0 86,30 99,72l169 0 161 -161 58 0c-1,-5 -1,-10 -1,-15 0,-57 46,-104 104,-104 22,0 42,6 59,18l225 0 164 -156 0 -368zm-1201 767c0,57 -46,104 -104,104 -58,0 -105,-47 -105,-104 0,-58 47,-105 105,-105 58,0 104,47 104,105z"/>
  <path class="fil8" d="M13975 8145c58,0 105,-47 105,-105 0,-5 -1,-9 -1,-14 -4,-25 -16,-47 -34,-63 -18,-17 -43,-27 -70,-27 -58,0 -105,47 -105,104 0,22 7,43 19,60 12,17 28,30 48,38 12,4 25,7 38,7zm40 -105c0,23 -18,40 -40,40 -22,0 -40,-17 -40,-40 0,-22 18,-40 40,-40 22,0 40,18 40,40z"/>
  <path class="fil6 str0" d="M16154 8684c58,0 105,47 105,105 0,57 -47,104 -105,104 -58,0 -104,-47 -104,-104 0,-58 46,-105 104,-105zm-96 64l-147 131 -1085 0 0 67 1109 0 121 -121"/>
  <path class="fil9" d="M14699 9014l-105 101 -304 0 0 70 322 0 105 -106 282 0 129 130 150 0 93 -94 84 0c-1,-6 -2,-13 -2,-21 0,-13 3,-26 8,-38l-127 0 -84 84 -88 0 -137 -126 -326 0z"/>
  <path class="fil10" d="M13078 7655c58,0 105,-47 105,-105 0,-23 -8,-44 -20,-61 -12,-17 -30,-31 -51,-38 -10,-4 -22,-6 -34,-6 -58,0 -105,47 -105,105 0,58 47,105 105,105zm40 -105c0,22 -18,40 -40,40 -22,0 -40,-18 -40,-40 0,-22 18,-40 40,-40 22,0 40,18 40,40z"/>
  <path class="fil11" d="M15225 7584c1,1 1,1 1,2 1,1 2,3 3,4 -1,-2 -3,-4 -4,-6zm32 36l68 20c51,-4 97,-48 97,-105 0,-56 -46,-104 -104,-104 -48,0 -88,31 -101,75 0,1 0,3 -1,5 0,0 0,1 0,2 -2,7 -3,15 -3,22 0,4 0,8 1,11 1,14 5,26 11,38 1,2 3,4 4,6 7,12 17,22 28,30zm61 -45c-22,0 -40,-18 -40,-40 0,-22 18,-40 40,-40 22,0 40,18 40,40 0,22 -18,40 -40,40z"/>
  <path class="fil12" d="M15831 9118c0,58 47,105 105,105 58,0 104,-47 104,-105 0,-57 -46,-104 -104,-104 -34,0 -65,16 -84,42 -12,16 -20,37 -21,59l0 3zm145 0c0,23 -18,41 -40,41 -22,0 -40,-18 -40,-41 0,-22 18,-40 40,-40 22,0 40,18 40,40z"/>
  <path class="fil11" d="M15540 9338c-30,19 -49,51 -49,89 0,58 46,104 104,104 58,0 105,-46 105,-104 0,-21 -7,-41 -17,-58 -8,-11 -17,-20 -28,-28 -1,0 -2,-1 -2,-2 -15,-9 -31,-15 -48,-16 -3,-1 -6,-1 -10,-1 -20,0 -39,6 -55,16zm15 89c0,-22 18,-40 40,-40 22,0 40,18 40,40 0,22 -18,40 -40,40 -22,0 -40,-18 -40,-40z"/>
  <path class="fil11" d="M15401 9666c0,58 47,104 105,104 58,0 104,-46 104,-104 0,-58 -46,-105 -104,-105 -2,0 -3,0 -4,0 -23,1 -44,10 -61,23 -24,19 -40,49 -40,82zm105 40c-22,0 -40,-18 -40,-40 0,-22 18,-40 40,-40 22,0 40,18 40,40 0,22 -18,40 -40,40z"/>
  <path class="fil2" d="M10984 10551c-597,-1115 -617,-2253 -57,-3414l-131 -145 -31 68 -170 -42 -85 183 148 105 -80 205 -173 -17 -58 195 154 83 -51 218 -170 0 -36 185 6 21 52 21 91 36 -15 222 -176 30 -3 203 167 40 0 73 -166 25 0 215 174 15 17 233 -154 59 35 201 176 0 53 215 -160 87 66 187 172 -11 76 207 -144 108 87 178 164 -41 103 197 -141 119 113 174 160 -64 0 635 315 294 307 0 0 27 151 132 155 -126 172 131 -71 177 158 97 140 -120 186 107 -45 171 169 91 114 -145 210 81 -16 191 175 47 93 -151 227 55 0 187 191 34 66 -172 227 28 19 192 206 5 38 -182 236 0 44 189 205 -14 5 -196 239 -28 67 178 196 -35 0 -196 217 -52 93 159 182 -58 -24 -181 210 -86 115 144 174 -85 -51 -179 187 -104 142 128 163 -105 -78 -173 174 -123 155 119 160 -133 0 -23 301 0 313 -300 0 -630 164 56 114 -170 -135 -112 100 -205 162 39 84 -177 -142 -103 75 -216 174 12 53 -186 -149 -86 50 -213 175 0 34 -196 -162 -64 23 -233 174 -13 0 -206 -164 -37 0 -73 162 -34 0 -205 -179 -30 -19 -228 167 -59 -40 -195 -182 -2 -51 -220 162 -81 -68 -189 -165 12 -81 -210 150 -101 -87 -180 -174 43 -53 -89 126 -113 -98 -170 -163 44 -118 -172 129 -129 -120 -168 -161 74 -142 -157 121 -147 -146 -144 -142 91 -175 -149 91 -147 -149 -134 -139 118 -185 -134 69 -171 -159 -110 -125 135 -200 -111 48 -182 -171 -81 -116 153 -208 -84 16 -192 -174 -56 -92 165 -229 -62 0 -182 -187 -45 -70 177 -231 -41 -15 -176 -200 -20 -43 179 -245 0 -35 -172 -200 7 -16 182 -232 38 -69 -176 -194 40 0 192 -226 54 -88 -163 -179 59 14 189 -207 87 -116 -148 -168 79 48 181 -196 113 -127 -133 -165 109 68 164 -173 132 -140 -115 -156 138 98 144 -87 84 -196 0 -27 -23 -143 153 115 120 1009 0 214 269 -297 0 -83 -93 -1010 0 -65 -81 -346 516 567 607 1378 0c68,-54 87,-98 143,-145 111,-95 250,-183 385,-248 635,-304 1378,-314 2035,-14 218,100 370,242 580,407l312 0 1066 -635c-127,-173 -258,-331 -394,-474 -79,-84 -160,-162 -242,-235 -88,-79 -178,-152 -269,-220 -554,-408 -1396,-650 -2086,-650 -484,0 -909,115 -1359,283 -183,68 -349,166 -518,276 -91,59 -286,192 -286,192l-224 0c213,-202 600,-449 861,-574 459,-221 1091,-338 1518,-349 625,-18 1482,280 1857,501 524,309 942,716 1212,1092 366,508 737,1279 712,2149 -9,316 -9,701 -122,1044 -103,311 -211,643 -412,947l0 769 -278 262 -688 0c-199,139 -382,267 -585,369 -549,276 -1114,404 -1675,406 -463,1 -925,-80 -1374,-264 -306,-126 -544,-289 -851,-502l-711 0 -269 -265 0 -975 300 -318 1128 0c-220,-308 -354,-577 -401,-809l-1343 232c87,313 194,580 321,800l-107 111z"/>
  <g style="clip-path:url(#id0)">
   <image x="38000" y="14830" width="8670" height="8670" xlink:href="CrDvLogoVet_Images\CrDvLogoVet_ImgID1.png"/>
  </g>
  <path class="fil13 str1" d="M14084 7278c0,-58 -47,-105 -105,-105 -58,0 -104,47 -104,105 0,58 46,105 104,105 8,0 16,-1 23,-3 47,-11 82,-52 82,-102zm-65 0c0,22 -18,40 -40,40 -22,0 -40,-18 -40,-40 0,-22 18,-40 40,-40 22,0 40,18 40,40z"/>
  <path class="fil13 str1" d="M13487 8088c58,0 105,-47 105,-105 0,-7 -1,-15 -3,-22 -5,-27 -21,-50 -43,-64 -17,-12 -37,-18 -59,-18 -58,0 -104,47 -104,104 0,29 11,55 30,74 19,19 45,31 74,31zm40 -105c0,22 -18,40 -40,40 -22,0 -40,-18 -40,-40 0,-22 18,-40 40,-40 22,0 40,18 40,40z"/>
  <path class="fil14 str1" d="M13001 8192c0,-12 -1,-23 -5,-33 -13,-42 -53,-72 -99,-72 -58,0 -105,47 -105,105 0,57 47,104 105,104 43,0 81,-26 97,-64 5,-13 7,-26 7,-40zm-64 0c0,22 -18,40 -40,40 -22,0 -40,-18 -40,-40 0,-22 18,-40 40,-40 22,0 40,18 40,40z"/>
  <path class="fil15 str1" d="M13622 7768c0,57 46,104 104,104 58,0 105,-47 105,-104 0,-58 -47,-105 -105,-105 -58,0 -104,47 -104,105zm104 40c-22,0 -40,-18 -40,-40 0,-23 18,-41 40,-41 22,0 40,18 40,41 0,22 -18,40 -40,40z"/>
  <path class="fil16 str1" d="M12684 8774c-22,0 -40,-18 -40,-40 0,-22 18,-40 40,-40 22,0 40,18 40,40 0,22 -18,40 -40,40zm-3 65c49,0 91,-34 102,-80 2,-8 3,-16 3,-25 0,-58 -47,-105 -105,-105 -58,0 -104,47 -104,105 0,58 46,105 104,105z"/>
  <path class="fil17 str1" d="M12781 7897c-9,-50 -52,-87 -103,-87 -58,0 -105,47 -105,104 0,4 0,7 0,10 6,54 50,95 105,95 57,0 104,-47 104,-105 0,-6 0,-12 -1,-17zm-63 17c0,23 -18,41 -40,41 -23,0 -40,-18 -40,-41 0,-22 17,-40 40,-40 22,0 40,18 40,40z"/>
  <path class="fil18 str1" d="M14523 7192c0,40 22,74 54,92 15,8 32,13 50,13 58,0 105,-47 105,-105 0,-58 -47,-105 -105,-105 -57,0 -104,47 -104,105zm104 40c-22,0 -40,-18 -40,-40 0,-22 18,-40 40,-40 23,0 41,18 41,40 0,22 -18,40 -41,40z"/>
  <path class="fil19 str1" d="M14773 7521c58,0 105,-47 105,-105 0,-14 -3,-28 -9,-41 -8,-20 -23,-37 -41,-48 -16,-10 -35,-15 -55,-15 -58,0 -105,46 -105,104 0,58 47,105 105,105zm40 -105c0,22 -18,40 -40,40 -22,0 -40,-18 -40,-40 0,-22 18,-40 40,-40 22,0 40,18 40,40z"/>
  <path class="fil20 str2" d="M15019 5551l-205 70 23 64 209 -71 -22 -62c-1,0 -3,0 -5,-1z"/>
  <path class="fil20 str2" d="M15073 5884l-216 -47 -13 67 216 46 13 -66z"/>
  <path class="fil21 str1" d="M13792 5621l-209 -71 -23 64 210 71 22 -64z"/>
  <path class="fil21 str1" d="M13750 5837l-216 47 13 66 216 -46 -13 -67z"/>
  <path class="fil22 str1" d="M14359 5785c-12,0 -22,25 -24,57 -1,32 8,58 20,59 11,0 22,-25 23,-57 1,-32 -7,-58 -19,-59z"/>
  <ellipse class="fil6 str0" transform="matrix(-0.999295 -0.0375341 -0.0375341 0.999295 14356.8 5842.87)" rx="21" ry="58"/>
  <path class="fil22 str1" d="M14274 5842c-1,-32 -12,-57 -24,-57 -11,1 -20,27 -19,59 1,32 12,57 24,57 11,-1 20,-27 19,-59z"/>
  <path class="fil23 str0" d="M14358 6185c24,-55 45,-104 63,-148 63,-151 86,-230 70,-237 -9,-4 -31,16 -66,59 -13,66 -34,99 -64,100 -18,1 -38,-4 -61,-26 -20,22 -40,27 -56,28 -31,0 -48,-36 -75,-111 -32,-38 -50,-53 -56,-44 -9,15 8,96 65,232 18,44 47,89 73,146l0 229 107 0 0 -228z"/>
  <path class="fil24 str2" d="M15455 9115c10,48 52,84 103,84 51,0 93,-36 103,-84 1,-7 2,-14 2,-21 0,-13 -3,-26 -8,-38 -15,-39 -53,-66 -97,-66 -44,0 -82,27 -97,66 -5,12 -8,25 -8,38 0,8 1,15 2,21zm103 20c-22,0 -40,-18 -40,-41 0,-22 18,-40 40,-40 22,0 40,18 40,40 0,23 -18,41 -40,41z"/>
  <path class="fil25 str2" d="M16056 8825c15,40 53,68 98,68 58,0 105,-47 105,-104 0,-58 -47,-105 -105,-105 -58,0 -104,47 -104,105 0,12 2,25 6,36zm98 4c-22,0 -40,-18 -40,-40 0,-23 18,-41 40,-41 22,0 40,18 40,41 0,22 -18,40 -40,40z"/>
  <path class="fil26 str1" d="M13604 8868c-22,0 -40,-18 -40,-40 0,-23 18,-41 40,-41 22,0 40,18 40,41 0,22 -18,40 -40,40zm-104 -40c0,57 46,104 104,104 58,0 105,-47 105,-104 0,-58 -47,-105 -105,-105 -58,0 -104,47 -104,105z"/>
  <path class="fil27 str2" d="M15556 8011c0,58 46,105 104,105 58,0 105,-47 105,-105 0,-57 -47,-104 -105,-104 -52,0 -96,38 -103,89 -1,5 -1,10 -1,15zm144 0c0,23 -18,41 -40,41 -22,0 -40,-18 -40,-41 0,-22 18,-40 40,-40 22,0 40,18 40,40z"/>
  <path class="fil28 str1" d="M14428 8851c0,22 -18,40 -40,40 -22,0 -40,-18 -40,-40 0,-23 18,-41 40,-41 22,0 40,18 40,41zm-145 0c0,57 47,104 105,104 58,0 105,-47 105,-104 0,-58 -47,-105 -105,-105 -58,0 -105,47 -105,105z"/>
  <path class="fil29 str1" d="M13420 9246c-23,0 -41,-18 -41,-40 0,-22 18,-40 41,-40 22,0 40,18 40,40 0,22 -18,40 -40,40zm0 64c57,0 104,-47 104,-104 0,-21 -6,-40 -16,-56 -18,-29 -51,-49 -88,-49 -58,0 -105,47 -105,105 0,57 47,104 105,104z"/>
  <path class="fil30 str1" d="M14121 9071c-22,0 -40,-18 -40,-40 0,-22 18,-40 40,-40 22,0 40,18 40,40 0,22 -18,40 -40,40zm-100 -10c13,43 53,74 100,74 58,0 105,-46 105,-104 0,-58 -47,-105 -105,-105 -43,0 -79,26 -96,62 -5,13 -9,28 -9,43 0,10 2,20 5,30z"/>
  <path class="fil31 str2" d="M15672 8529c57,0 104,-47 104,-105 0,-58 -47,-105 -104,-105 -58,0 -105,47 -105,105 0,10 2,20 4,29 13,44 53,76 101,76zm0 -65c-22,0 -40,-18 -40,-40 0,-22 18,-40 40,-40 22,0 40,18 40,40 0,22 -18,40 -40,40z"/>
  <path class="fil32" d="M13102 6806l-599 -798c353,-227 718,-374 1080,-456 1,0 2,0 4,-1 119,-27 238,-46 356,-59 30,-4 61,-7 92,-9 178,-15 353,-15 524,-1 38,3 75,6 111,10 8,1 15,2 23,3 109,13 218,32 326,56 2,1 4,1 5,1 258,59 513,152 760,281 420,220 850,544 1184,1001l-790 493c-563,-578 -1238,-825 -1848,-829l-7 0 -23 0c-377,3 -789,83 -1165,290 -11,6 -22,12 -33,18zm-217 437c111,-95 250,-183 386,-248 634,-304 1378,-314 2035,-14 217,100 370,242 580,407l311 0 1000 -596c-460,-636 -1017,-1049 -1598,-1285 -247,-100 -498,-169 -747,-209 -24,-4 -48,-7 -72,-11 -70,-10 -140,-17 -209,-23 -21,-1 -43,-3 -64,-4 -58,-3 -116,-5 -174,-6 -21,0 -42,0 -62,0 -19,0 -38,1 -57,1 -36,1 -75,3 -115,5 -21,2 -42,3 -63,5 -68,6 -140,14 -214,25 -24,3 -49,7 -73,11 -181,28 -371,71 -545,128 -335,109 -660,272 -935,496l-892 0 -111 118 1207 0 600 780c-209,125 -407,290 -580,504l-1002 0 0 -754 1219 0 -113 -134 -295 0 -15 -17 -69 -76 -678 0 -332 0 -65 -81 -346 516 568 607 1377 0c68,-54 87,-98 143,-145zm1198 -541l0 -68 430 0 0 68 -430 0zm0 -98l0 -68 430 0 0 68 -430 0z"/>
  <path class="fil6 str3" d="M11224 10590l164 -164 5823 0 173 173 -2 838 -179 179 -5813 0 -166 -166 0 -860z"/>
  <path class="fil6 str3" d="M17159 11509l-5722 1 -115 -116 0 -752 113 -113 5734 0 107 106 0 758 -117 116z"/>
  <path class="fil33 str3" d="M17159 11509l-5722 1 -115 -116 0 -752 113 -113 5734 0 107 106 0 758 -117 116zm52 -1083l-5823 0 -164 164 0 860 166 166 5813 0 179 -179 2 -838 -173 -173z"/>
  <path class="fil34 str3" d="M11630 10676l-107 82 0 482 99 90 541 0 0 -152 -475 0 0 -352 468 0 0 -150 -526 0z"/>
  <path class="fil35 str3" d="M12872 11179l-2 151 -554 0 -99 -84 0 -478 108 -94 547 0 0 155 -486 0 0 350 486 0z"/>
  <path class="fil35 str3" d="M12417 11076l0 -24 151 -137 296 0 0 23 -165 138 -282 0z"/>
  <path class="fil35 str3" d="M13402 10823l-476 1 0 -152 534 0 98 99 0 192 -50 51 -153 0 206 161 0 171 -21 0 -434 -308 0 291 -178 0 0 -415 474 0 0 -91z"/>
  <path class="fil35 str3" d="M14274 11179l-1 151 -554 0 -100 -84 0 -478 108 -94 547 0 0 155 -486 0 0 350 486 0z"/>
  <path class="fil35 str3" d="M13820 11076l0 -24 150 -137 296 0 0 23 -164 138 -282 0z"/>
  <path class="fil35 str3" d="M15680 11179l-2 151 -554 0 -99 -84 0 -478 108 -94 547 0 0 155 -486 0 0 350 486 0z"/>
  <path class="fil35 str3" d="M15225 11076l0 -24 151 -137 296 0 0 23 -165 138 -282 0z"/>
  <path class="fil6 str4" d="M13169 11779c745,293 1500,293 2266,0"/>
  <path class="fil6 str4" d="M12493 11779c146,85 431,236 577,301 415,183 844,221 1232,223 602,4 1157,-149 1799,-524"/>
  <path class="fil36 str3" d="M14496 10914l-171 0 0 415 548 0 92 -92 0 -468 -93 -94 -548 0 0 150 479 0 0 356 -307 0 0 -267z"/>
  <path class="fil6 str3" d="M16243 10682l181 0 0 18 -230 625 -247 0 -233 -625"/>
  <path class="fil6 str3" d="M16243 10682l-176 498 -164 -503 -189 0 0 23"/>
  <path class="fil21 str3" d="M16963 11330l-511 -5 0 -145 446 0 0 -100 -403 0 -40 -28 0 -282 106 -88 523 0 0 147 -457 0 0 94 334 0 109 110 0 203 -107 94z"/>
  <path class="fil21 str3" d="M16067 11180l-164 -503 -189 0 0 23 233 625 247 0 230 -625 0 -18 -181 0 -176 498z"/>
  <path class="fil37 str3" d="M15124 11330l-99 -84 0 -478 108 -94 547 0 0 155 -486 0 0 350 486 0 -2 151 -554 0zm823 -5l-233 -625 0 -23 189 0 164 503 176 -498 181 0 0 18 -230 625 -247 0zm-1074 4l-548 0 0 -415 171 0 0 267 307 0 0 -356 -479 0 0 -150 548 0 93 94 0 468 -92 92zm-3436 181l5722 -1 117 -116 0 -758 -107 -106 -5734 0 -113 113 0 752 115 116zm3788 -434l0 -24 151 -137 296 0 0 23 -165 138 -282 0zm1738 254l-511 -5 0 -145 446 0 0 -100 -403 0 -40 -28 0 -282 106 -88 523 0 0 147 -457 0 0 94 334 0 109 110 0 203 -107 94zm-2689 -151l-1 151 -554 0 -100 -84 0 -478 108 -94 547 0 0 155 -486 0 0 350 486 0zm-172 -103l-282 0 0 -24 150 -137 296 0 0 23 -164 138zm-544 -305l0 192 -50 51 -153 0 206 161 0 171 -21 0 -434 -308 0 291 -178 0 0 -415 474 0 0 -91 -476 1 0 -152 534 0 98 99zm-859 305l-282 0 0 -24 151 -137 296 0 0 23 -165 138zm173 103l-2 151 -554 0 -99 -84 0 -478 108 -94 547 0 0 155 -486 0 0 350 486 0zm-716 -353l-468 0 0 352 475 0 0 152 -541 0 -99 -90 0 -482 107 -82 526 0 0 150z"/>
  <path class="fil6 str3" d="M17817 9619l-1320 -291c67,-273 67,-569 0,-889"/>
  <path class="fil6 str3" d="M16497 8439l1383 -166c61,548 40,997 -63,1346"/>
  <path class="fil6 str3" d="M17215 10225l255 268c120,-189 222,-439 304,-751l-1306 -304c-82,303 -215,566 -401,787l1148 0z"/>
  <path class="fil6 str3" d="M16102 7576l1229 -717c291,465 466,898 524,1299l-1380 175c-71,-294 -196,-547 -373,-757z"/>
  <path class="fil6 str0" d="M14426 9772l-217 -239 217 0 0 239z"/>
  <circle class="fil6 str0" cx="13770" cy="9352" r="40"/>
  <circle class="fil6 str0" cx="13420" cy="9206" r="40"/>
  <circle class="fil6 str0" cx="15595" cy="9427" r="40"/>
  <circle class="fil6 str0" cx="15595" cy="9427" r="105"/>
  <circle class="fil6 str0" cx="15506" cy="9666" r="40"/>
  <circle class="fil6 str0" cx="15506" cy="9666" r="105"/>
  <circle class="fil6 str0" cx="15660" cy="8011" r="40"/>
  <circle class="fil6 str0" cx="15318" cy="7535" r="40"/>
  <circle class="fil6 str0" cx="15318" cy="7535" r="105"/>
  <circle class="fil6 str0" cx="14773" cy="7416" r="40"/>
  <circle class="fil6 str0" cx="14627" cy="7192" r="40"/>
  <circle class="fil6 str0" cx="13975" cy="8040" r="40"/>
  <circle class="fil6 str0" cx="13975" cy="8040" r="105"/>
  <circle class="fil6 str0" cx="13487" cy="7983" r="40"/>
  <circle class="fil6 str0" cx="13726" cy="7768" r="40"/>
  <circle class="fil6 str0" cx="12897" cy="8192" r="40"/>
  <circle class="fil6 str0" cx="12630" cy="8140" r="40"/>
  <circle class="fil6 str0" cx="12630" cy="8140" r="105"/>
  <rect class="fil38 str0" x="14083" y="6634" width="429.95" height="67.8"/>
  <rect class="fil38 str0" x="14083" y="6536" width="429.95" height="67.8"/>
  <path class="fil6 str0" d="M12685 8999c88,64 217,81 387,52l0 -165 -113 113 -274 0z"/>
  <circle class="fil6 str0" cx="12678" cy="7914" r="40"/>
  <rect class="fil6 str0" x="15187" y="9363" width="92.61" height="514.62"/>
  <path class="fil6 str0" d="M15021 9840l97 26 0 -505 -97 0 0 479z"/>
  <path class="fil6 str0" d="M14394 7071l-137 78 0 1183 65 0 0 -341 72 -73 0 -847z"/>
  <path class="fil6 str0" d="M12963 7766l-57 61 376 0 323 -323 0 -413c-28,14 -56,31 -84,53l0 370 -256 252 -302 0z"/>
  <path class="fil0 str3" d="M14426 9533l-217 0 217 239 0 -239z"/>
  <path class="fil6 str0" d="M12505 10225l7 -14"/>
  <path class="fil6 str3" d="M10746 8121l1339 255c-57,326 -57,631 0,914l-1339 220c-102,-463 -102,-926 0,-1389z"/>
  <path class="fil6 str3" d="M11316 7578l1149 2c-156,192 -274,421 -354,685l-1346 -267c44,-235 133,-477 268,-728l283 308z"/>
  <path class="fil6 str5" d="M11080 10431l60 -72 0 -12 -60 -88 261 -145 -41 -86 -257 129 -36 -61 936 -451 19 34 -620 308 122 230"/>
  <path class="fil6 str5" d="M12478 10174l-33 43"/>
  <path class="fil6 str5" d="M12384 10034l-116 73 47 62 110 -73"/>
  <path class="fil6 str5" d="M12354 9984l-391 234"/>
  <path class="fil6 str5" d="M12320 9928l-493 289"/>
  <path class="fil6 str5" d="M12293 9879l-485 254 -22 -37 348 -189 -46 -79 141 -73"/>
  <path class="fil6 str5" d="M12139 9528l-167 70 -42 -89 184 -70"/>
  <rect class="fil6 str5" transform="matrix(0.635767 -0.373409 0.373409 0.635767 11687.3 10033)" width="36.39" height="65.32"/>
  <path class="fil6 str5" d="M11880 9887l-73 43 26 46 215 -126 -41 -78 -137 79 10 36z"/>
  <path class="fil6 str5" d="M12199 9690l-146 69 -48 -103 153 -70"/>
  <path class="fil32" d="M11860 9514l-270 97 -16 -41 270 -97 16 41zm-853 582l936 -451 19 34 -620 308 122 230 363 0 493 -289c-9,-16 -18,-33 -27,-49l-485 254 -22 -37 348 -189 -46 -79 141 -73c-11,-22 -21,-44 -30,-65l-146 69 -48 -103 153 -70c-7,-19 -14,-38 -19,-58l-167 70 -42 -89 184 -70c-2,-10 -5,-20 -7,-31l-1342 232c85,309 190,572 315,791l60 -72 0 -12 -60 -88 261 -145 -41 -86 -257 129 -36 -61zm863 -245l137 -79 41 78 -215 126 -26 -46 73 -43 -10 -36zm-183 182l23 -14 25 42 -23 14 -25 -42z"/>
  <rect class="fil6 str5" transform="matrix(0.984988 -0.353187 0.37185 0.935553 11573.8 9570.18)" width="274.44" height="43.54"/>
  <path class="fil39" d="M12478 10174l-33 43 63 0c-10,-14 -20,-29 -30,-43z"/>
  <path class="fil2" d="M11965 10217l389 -233c-12,-19 -23,-38 -34,-56l-493 289 138 0z"/>
  <path class="fil2" d="M12268 10107l47 62 110 -73c-14,-21 -28,-42 -41,-62l-116 73z"/>
  <path class="fil32" d="M11965 10217l480 0 33 -43c-19,-27 -36,-52 -53,-78l-110 73 -47 -62 116 -73c-10,-17 -20,-34 -30,-50l-389 233z"/>
  <path class="fil2" d="M11808 10133l485 -254c-23,-42 -45,-83 -64,-124l-141 73 46 79 -348 189 22 37z"/>
  <path class="fil2" d="M11735 10061l-25 -42 -23 14 25 42 23 -14z"/>
  <path class="fil2" d="M11807 9930l26 46 215 -126 -41 -78 -137 79 10 36 -73 43z"/>
  <path class="fil2" d="M12005 9656l48 103 146 -69c-15,-35 -29,-70 -41,-104l-153 70z"/>
  <path class="fil2" d="M11972 9598l167 -70c-10,-30 -18,-60 -25,-89l-184 70 42 89z"/>
  <path class="fil2" d="M11590 9611l270 -97 -16 -41 -270 97 16 41z"/>
  <path class="fil6 str5" d="M12070 8472l-414 -37 -11 99 413 32"/>
  <path class="fil6 str5" d="M12050 8650l-416 -29 -2 93 413 12"/>
  <path class="fil6 str5" d="M12051 9054l-200 23 3 100 -384 49 -37 -385 395 -14 0 72 215 -13"/>
  <path class="fil6 str5" d="M12046 8980l-201 23 -5 -39 204 -20"/>
  <path class="fil6 str5" d="M11779 9067l-202 24 -7 -128 201 -17 -4 -46 -236 16 13 217 240 -22 -5 -44z"/>
  <rect class="fil6 str1" transform="matrix(0.964435 -0.0738179 0.0738179 0.964435 11039.1 8930.5)" width="116.58" height="43"/>
  <rect class="fil6 str5" transform="matrix(0.962226 -0.09851 0.09851 0.962226 11044.4 9039.48)" width="116.58" height="43"/>
  <rect class="fil6 str5" transform="matrix(0.962226 -0.09851 0.09851 0.962226 11057.7 9145.31)" width="116.58" height="43"/>
  <rect class="fil6 str5" transform="matrix(0.962226 -0.09851 0.09851 0.962226 11066.8 9259.42)" width="116.58" height="43"/>
  <rect class="fil6 str5" transform="matrix(0.964435 -0.0738179 0.0738179 0.964435 11039.1 8930.5)" width="116.58" height="43"/>
  <path class="fil6 str5" d="M11034 8878l-5 -50 248 -17 4 50 -247 17z"/>
  <path class="fil6 str5" d="M12077 8424l-418 -41 2 -47 -74 0c-21,99 -33,226 -36,380l-258 -9c-4,-147 10,-306 40,-474"/>
  <path class="fil6 str5" d="M11322 8231c-28,121 -42,281 -44,480l-480 -20c-1,-122 13,-267 41,-436l-117 -17"/>
  <path class="fil32" d="M11828 8827l-395 14 37 385 384 -49 -3 -100 200 -23c-2,-24 -4,-49 -5,-74l-201 23 -5 -39 204 -20c-1,-19 -1,-39 -1,-58l-215 13 0 -72zm-44 284l-240 22 -13 -217 236 -16 4 46 -201 17 7 128 202 -24 5 44z"/>
  <path class="fil6 str1" d="M12061 9147l-201 38 7 59 -844 139c-39,-234 -58,-433 -59,-605l1080 -12"/>
  <path class="fil32" d="M11183 9289l-4 -41 -112 11 4 42 112 -12z"/>
  <path class="fil32" d="M11062 9187l112 -12 -4 -41 -112 11 4 42z"/>
  <path class="fil32" d="M11049 9081l112 -12 -4 -41 -113 11 5 42z"/>
  <path class="fil32" d="M11042 8972l113 -9 -4 -41 -112 9 3 41z"/>
  <path class="fil32" d="M11034 8878l247 -17 -4 -50 -248 17 5 50z"/>
  <path class="fil2" d="M11151 8922l4 41 -113 9 -3 -41 112 -9zm130 -61l-247 17 -5 -50 248 -17 4 50zm-111 273l4 41 -112 12 -4 -42 112 -11zm-9 -65l-112 12 -5 -42 113 -11 4 41zm309 157l-37 -385 395 -14 0 72 215 -13c-1,-40 -1,-80 1,-120l-1080 12c1,172 20,371 59,605l844 -139 -7 -59 201 -38c-4,-31 -7,-62 -10,-93l-200 23 3 100 -384 49zm-291 22l4 41 -112 12 -4 -42 112 -11z"/>
  <path class="fil2" d="M11531 8916l13 217 240 -22 -5 -44 -202 24 -7 -128 201 -17 -4 -46 -236 16z"/>
  <path class="fil32" d="M11023 9383c-39,-234 -58,-433 -59,-605l1080 -12c0,-13 1,-27 1,-40l-413 -12 2 -93 416 29c2,-28 5,-56 8,-84l-413 -32 11 -99 414 37c2,-16 5,-32 7,-48l-418 -41 2 -47 -74 0c-21,99 -33,226 -36,380l-258 -9c-4,-147 10,-306 40,-474l-11 -2c-28,121 -42,281 -44,480l-480 -20c-1,-122 13,-267 41,-436l-117 -17c-77,424 -69,848 24,1272l1339 -220c-9,-47 -17,-95 -24,-143l-201 38 7 59 -844 139z"/>
  <path class="fil2" d="M11632 8714l413 12c2,-25 3,-50 5,-76l-416 -29 -2 93z"/>
  <path class="fil2" d="M11645 8534l413 32c4,-31 8,-62 12,-94l-414 -37 -11 99z"/>
  <path class="fil2" d="M11659 8383l418 41c3,-16 6,-32 8,-48l-752 -143c-30,168 -44,327 -40,474l258 9c3,-154 15,-281 36,-380l74 0 -2 47z"/>
  <path class="fil2" d="M11278 8711c2,-199 16,-359 44,-480l-576 -110c-9,39 -16,78 -24,117l117 17c-28,169 -42,314 -41,436l480 20z"/>
  <path class="fil6 str5" d="M12127 8214l-1250 -333 46 -165 1237 404"/>
  <path class="fil6 str5" d="M12196 8031l-1212 -494 66 -144 186 98"/>
  <path class="fil6 str5" d="M11433 7578l462 205 26 -53 -325 -152"/>
  <path class="fil6 str5" d="M12289 7840l-531 -261"/>
  <path class="fil6 str5" d="M12311 7803l-429 -224"/>
  <path class="fil6 str5" d="M12383 7690l-187 -111"/>
  <path class="fil6 str5" d="M12423 7634l-73 -54"/>
  <path class="fil32" d="M12127 8214l-1250 -333 46 -165 1237 404c12,-30 24,-60 36,-89l-1212 -494 66 -144 186 98 -203 -221c-135,251 -224,493 -268,728l1346 267c5,-17 10,-34 16,-51z"/>
  <path class="fil2" d="M10877 7881l1250 333c10,-32 22,-63 33,-94l-1237 -404 -46 165z"/>
  <path class="fil2" d="M10984 7537l1212 494c28,-66 59,-130 93,-191l-531 -261 -162 -1 325 152 -26 53 -462 -205 -117 0 -80 -87 -186 -98 -66 144z"/>
  <path class="fil32" d="M11433 7578l462 205 26 -53 -325 -152 -163 0z"/>
  <path class="fil32" d="M11758 7579l531 261c7,-12 14,-25 22,-37l-429 -224 -124 0z"/>
  <path class="fil2" d="M11882 7579l429 224c22,-39 46,-77 72,-113l-187 -111 -314 0z"/>
  <path class="fil32" d="M12196 7579l187 111c13,-19 26,-38 40,-56l-73 -54 -154 -1z"/>
  <path class="fil2" d="M12350 7580l73 54c13,-18 28,-36 42,-54l-115 0z"/>
  <path class="fil4" d="M13070 12080c-146,-65 -431,-216 -577,-301l-152 0c253,157 473,299 726,395 860,325 1794,286 2662,-92 194,-85 335,-184 528,-303l-156 0c-642,375 -1197,528 -1799,524 -388,-2 -817,-40 -1232,-223z"/>
  <path class="fil4" d="M13169 11779c745,293 1500,293 2266,0l-2266 0z"/>
  <path class="fil32" d="M15435 11779c-766,293 -1521,293 -2266,0l-676 0c146,85 431,236 577,301 415,183 844,221 1232,223 602,4 1157,-149 1799,-524l-666 0z"/>
  <path class="fil6 str5" d="M17533 8199c-59,-388 -218,-781 -476,-1180"/>
  <path class="fil6 str5" d="M17616 7605l-142 48c-62,-155 -128,-297 -199,-425l128 -80c85,124 156,276 213,457z"/>
  <path class="fil6 str5" d="M17599 8079l151 -32c-18,-105 -55,-225 -110,-361l-138 51c53,148 85,262 97,342z"/>
  <path class="fil6 str5" d="M16349 7968l489 -169 -26 -54 -139 54 -24 -50 189 -84c101,166 172,365 212,595"/>
  <path class="fil6 str5" d="M16134 7616l457 -247 32 58 -451 238"/>
  <path class="fil6 str5" d="M16209 7718l450 -227 49 84 -408 195 28 43 542 -237c41,62 71,125 93,189l136 -51 -17 -33 165 -73 -29 -55 -155 69 -25 -56 156 -74 -25 -55 -158 67 -30 -57 156 -77 -27 -55 -152 79 -32 -53 155 -76 -28 -56 -160 78 -29 -49 162 -85 4 -31 37 -14c121,200 210,392 266,575l-347 131c79,218 119,364 119,439"/>
  <path class="fil2" d="M16870 7576l-542 237 -28 -43 408 -195 -49 -84 -450 227c53,78 100,162 140,250l489 -169 -26 -54 -139 54 -24 -50 189 -84c101,166 172,365 212,595l55 -7c0,-75 -40,-221 -119,-439l347 -131c-56,-183 -145,-375 -266,-575l-37 14 -4 31 -162 85 29 49 160 -78 28 56 -155 76 32 53 152 -79 27 55 -156 77 30 57 158 -67 25 55 -156 74 25 56 155 -69 29 55 -165 73 17 33 -136 51c-22,-64 -52,-127 -93,-189z"/>
  <path class="fil2" d="M16172 7665l451 -238 -32 -58 -457 247c13,16 26,32 38,49z"/>
  <path class="fil6 str5" d="M16414 8127l498 -142 -48 -118 -485 168"/>
  <path class="fil2" d="M16414 8127l498 -142 -48 -118 -485 168c12,30 24,61 35,92z"/>
  <path class="fil6 str5" d="M16470 8310l501 -103 -27 -99 -501 108"/>
  <path class="fil2" d="M16470 8310l501 -103 -27 -99 -501 108c10,31 19,63 27,94z"/>
  <path class="fil32" d="M16443 8216l501 -108 27 99 -501 103c2,8 4,16 5,23l575 -73c-40,-230 -111,-429 -212,-595l-189 84 24 50 139 -54 26 54 -489 169c11,22 20,44 30,67l485 -168 48 118 -498 142c10,29 20,59 29,89z"/>
  <path class="fil32" d="M16986 7814c79,218 119,364 119,439l428 -54c-59,-388 -218,-781 -476,-1180l-955 557c11,13 21,26 32,40l457 -247 32 58 -451 238c13,18 25,35 37,53l450 -227 49 84 -408 195 28 43 542 -237c41,62 71,125 93,189l136 -51 -17 -33 165 -73 -29 -55 -155 69 -25 -56 156 -74 -25 -55 -158 67 -30 -57 156 -77 -27 -55 -152 79 -32 -53 155 -76 -28 -56 -160 78 -29 -49 162 -85 4 -31 37 -14c121,200 210,392 266,575l-347 131z"/>
  <path class="fil2" d="M17057 7019c258,399 417,792 476,1180l322 -41c-58,-401 -233,-834 -524,-1299l-274 160zm417 634c-62,-155 -128,-297 -199,-425l128 -80c85,124 156,276 213,457l-142 48zm28 84l138 -51c55,136 92,256 110,361l-151 32c-12,-80 -44,-194 -97,-342z"/>
  <path class="fil32" d="M17640 7686l-138 51c53,148 85,262 97,342l151 -32c-18,-105 -55,-225 -110,-361z"/>
  <path class="fil32" d="M17474 7653l142 -48c-57,-181 -128,-333 -213,-457l-128 80c71,128 137,270 199,425z"/>
  <path class="fil6 str5" d="M11545 6340l-193 226 -305 0 -73 97 0 15 393 0 202 -232 718 0 0 -30"/>
  <path class="fil2" d="M11540 6346l-188 220 -305 0 -73 97 0 15 393 0 202 -232 718 0 0 -24 -69 -76 -678 0z"/>
  <path class="fil6 str5" d="M12590 6430l120 143 -1219 0 0 754 1002 0c190,-235 409,-411 642,-539 384,-211 804,-291 1188,-290 612,2 1290,248 1855,829l790 -493c-334,-457 -764,-781 -1184,-1001 -353,-184 -719,-293 -1091,-338 -691,-83 -1466,48 -2190,513l599 798m-1839 -763l1210 0 600 780"/>
  <path class="fil6 str5" d="M12465 7260c127,-166 278,-309 451,-428l-126 -155 -1240 0 0 583 915 0z"/>
  <path class="fil2" d="M11550 6677l1240 0 126 155c-173,119 -324,262 -451,428l-915 0 0 -583zm-59 650l1002 0c173,-214 371,-379 580,-504l-600 -780 -1207 0 -6 7 116 120 1008 0 215 269 -2 0 113 134 -1219 0 0 754z"/>
  <path class="fil32" d="M12790 6677l-1240 0 0 583 915 0c127,-166 278,-309 451,-428l-126 -155z"/>
  <path class="fil6 str5" d="M17834 9558l-848 -184c19,-77 33,-152 43,-224l-490 -78"/>
  <path class="fil6 str5" d="M16518 9229l401 93 22 -108 -410 -67"/>
  <path class="fil6 str5" d="M17223 8352c69,345 55,700 -41,1065"/>
  <path class="fil6 str5" d="M17280 8345c66,349 53,711 -39,1085"/>
  <path class="fil6 str5" d="M16543 8778l445 0 -6 -144 -450 15"/>
  <path class="fil6 str5" d="M16522 8576l449 -30 -4 -73 -456 34"/>
  <path class="fil6 str0" d="M14867 9795l91 29 0 -463 -91 0 0 434z"/>
  <path class="fil0 str1" d="M14867 9795l91 29 0 -463 -91 0 0 434z"/>
  <path class="fil0 str1" d="M15021 9361l0 479 97 26 0 -505 -97 0z"/>
  <path class="fil0 str1" d="M15187 9363l0 515 93 0 0 -515 -93 0z"/>
  <path class="fil6 str5" d="M17737 9386c70,-326 81,-636 38,-957l-54 2c42,291 31,607 -33,946l49 9z"/>
  <path class="fil32" d="M17737 9386c70,-326 81,-636 38,-957l-54 2c42,291 31,607 -33,946l49 9z"/>
  <path class="fil32" d="M17182 9417l-196 -43c19,-77 33,-152 43,-224l-490 -78c-2,25 -5,50 -8,75l410 67 -22 108 -401 -93c-6,33 -13,67 -21,99l1320 291c6,-20 12,-40 17,-61l-593 -128 -59 -13z"/>
  <path class="fil2" d="M16919 9322l22 -108 -410 -67c-3,27 -8,55 -13,82l401 93z"/>
  <path class="fil2" d="M17280 8345c66,349 53,711 -39,1085l593 128c88,-340 104,-768 46,-1285l-600 72zm408 1032c64,-339 75,-655 33,-946l54 -2c43,321 32,631 -38,957l-49 -9z"/>
  <path class="fil2" d="M16988 8778l-6 -144 -450 15c5,43 9,86 11,129l445 0z"/>
  <path class="fil6 str5" d="M16659 8419l378 0c22,222 22,428 0,618l-61 0c7,-62 8,-124 4,-184l-434 -17"/>
  <path class="fil32" d="M16988 8778l-445 0c1,19 2,39 3,58l434 17c4,60 3,122 -4,184l61 0c22,-190 22,-396 0,-618l-378 0 -162 20c5,23 9,45 14,68l456 -34 4 73 -449 30c4,25 7,49 10,73l450 -15 6 144z"/>
  <path class="fil40" d="M17223 8352c69,345 55,700 -41,1065l59 13c92,-374 105,-736 39,-1085l-57 7z"/>
  <path class="fil2" d="M17182 9417c96,-365 110,-720 41,-1065l-564 67 378 0c22,222 22,428 0,618l-61 0c7,-62 8,-124 4,-184l-434 -17c3,80 0,159 -7,236l490 78c-10,72 -24,147 -43,224l196 43z"/>
  <path class="fil6 str5" d="M16110 10172l59 53"/>
  <path class="fil6 str5" d="M16152 10116l138 109"/>
  <path class="fil6 str5" d="M16300 10225l48 -58 -150 -117"/>
  <path class="fil6 str5" d="M16220 10016l160 105 67 -94 -173 -103"/>
  <path class="fil6 str5" d="M16315 9846l176 98 61 -106 -191 -92"/>
  <path class="fil6 str5" d="M16389 9677l193 97 59 -125 -212 -82"/>
  <path class="fil6 str5" d="M16455 9483l219 76 24 -68"/>
  <path class="fil6 str5" d="M16793 9513l-3 31 217 74 0 -30 93 28c-34,120 -80,237 -140,352l63 40c73,-144 121,-267 143,-368l520 158c-58,217 -145,433 -260,649"/>
  <path class="fil6 str5" d="M16524 10225l-82 -59 36 -52 173 111"/>
  <rect class="fil6 str5" transform="matrix(0.97302 0.483298 -0.483298 0.97302 16610.8 9892.63)" width="258.64" height="30.42"/>
  <rect class="fil6 str5" transform="matrix(0.962876 0.558635 -0.558635 0.962876 16553 10012.8)" width="238.13" height="52.92"/>
  <path class="fil6 str5" d="M16929 9756l-226 -91 21 -53 266 92 -101 237 -253 -118 28 -56 219 98 46 -109z"/>
  <path class="fil32" d="M17166 9640c-22,101 -70,224 -143,368l-63 -40c60,-115 106,-232 140,-352l-93 -28 0 30 -217 -74 3 -31 -95 -22 -24 68 -219 -76c-8,28 -17,56 -26,84l212 82 -59 125 -193 -97c-9,23 -18,46 -28,69l191 92 -61 106 -176 -98c-13,26 -27,52 -41,78l173 103 -67 94 -160 -105c-8,11 -15,23 -22,34l150 117 -48 58 224 0 -82 -59 36 -52 173 111 564 0 211 222c115,-216 202,-432 260,-649l-520 -158zm-176 64l-101 237 -253 -118 28 -56 219 98 46 -109 -226 -91 21 -53 266 92zm-127 314l-15 29 -252 -125 15 -29 252 125zm-81 128l-29 51 -230 -133 30 -51 229 133z"/>
  <path class="fil32" d="M16290 10225l-138 -109c-13,19 -27,37 -42,56l59 53 121 0z"/>
  <path class="fil4" d="M16169 10225l-59 -53c-14,18 -28,35 -43,53l102 0z"/>
  <path class="fil4" d="M16152 10116l138 109 10 0 48 -58 -150 -117c-15,22 -30,44 -46,66z"/>
  <path class="fil4" d="M16220 10016l160 105 67 -94 -173 -103c-17,31 -36,62 -54,92z"/>
  <path class="fil4" d="M16315 9846l176 98 61 -106 -191 -92c-15,34 -30,67 -46,100z"/>
  <path class="fil4" d="M16389 9677l193 97 59 -125 -212 -82c-12,37 -26,74 -40,110z"/>
  <path class="fil4" d="M16455 9483l219 76 24 -68 -230 -53c-4,15 -9,30 -13,45z"/>
  <path class="fil4" d="M16793 9513l-3 31 217 74 0 -30 93 28c-34,120 -80,237 -140,352l63 40c73,-144 121,-267 143,-368l520 158c-58,217 -145,433 -260,649l44 46c120,-189 222,-439 304,-751l-981 -229z"/>
  <path class="fil4" d="M16990 9704l-266 -92 -21 53 226 91 -46 109 -219 -98 -28 56 253 118 101 -237z"/>
  <path class="fil4" d="M16863 10018l-252 -125 -15 29 252 125 15 -29z"/>
  <path class="fil4" d="M16782 10146l-229 -133 -30 51 230 133 29 -51z"/>
  <path class="fil4" d="M16651 10225l-173 -111 -36 52 82 59 127 0z"/>
  <circle class="fil6 str0" cx="12684" cy="8734" r="40"/>
  <circle class="fil6 str0" cx="15936" cy="9118" r="40"/>
  <circle class="fil6 str0" cx="15936" cy="9118" r="105"/>
  <path class="fil0 str1" d="M15976 9118c0,-22 -18,-40 -40,-40 -22,0 -40,18 -40,40 0,23 18,41 40,41 22,0 40,-18 40,-41z"/>
  <circle class="fil6 str0" cx="14121" cy="9031" r="40"/>
  <path class="fil0 str1" d="M14081 9031c0,22 18,40 40,40 22,0 40,-18 40,-40 0,-22 -18,-40 -40,-40 -22,0 -40,18 -40,40z"/>
  <circle class="fil6 str0" cx="16154" cy="8789" r="40"/>
  <circle class="fil6 str0" cx="15558" cy="9094" r="40"/>
  <path class="fil0 str1" d="M15558 9135c22,0 40,-18 40,-41 0,-22 -18,-40 -40,-40 -22,0 -40,18 -40,40 0,23 18,41 40,41z"/>
  <path class="fil0 str1" d="M16114 8789c0,22 18,40 40,40 22,0 40,-18 40,-40 0,-23 -18,-41 -40,-41 -22,0 -40,18 -40,41z"/>
  <path class="fil0 str1" d="M15635 9427c0,-22 -18,-40 -40,-40 -22,0 -40,18 -40,40 0,22 18,40 40,40 22,0 40,-18 40,-40z"/>
  <path class="fil0 str1" d="M15546 9666c0,-22 -18,-40 -40,-40 -22,0 -40,18 -40,40 0,22 18,40 40,40 22,0 40,-18 40,-40z"/>
  <circle class="fil6 str0" cx="14388" cy="8851" r="40"/>
  <path class="fil0 str1" d="M14388 8891c22,0 40,-18 40,-40 0,-23 -18,-41 -40,-41 -22,0 -40,18 -40,41 0,22 18,40 40,40z"/>
  <circle class="fil6 str0" cx="15672" cy="8424" r="40"/>
  <circle class="fil6 str0" cx="15912" cy="8211" r="40"/>
  <circle class="fil6 str0" cx="15912" cy="8211" r="105"/>
  <circle class="fil6 str0" cx="15376" cy="8215" r="40"/>
  <circle class="fil6 str0" cx="15376" cy="8215" r="105"/>
  <path class="fil0 str1" d="M15376 8255c22,0 40,-18 40,-40 0,-22 -18,-40 -40,-40 -22,0 -40,18 -40,40 0,22 18,40 40,40z"/>
  <path class="fil0 str1" d="M15672 8384c-22,0 -40,18 -40,40 0,22 18,40 40,40 22,0 40,-18 40,-40 0,-22 -18,-40 -40,-40z"/>
  <path class="fil0 str1" d="M15871 8211c0,22 18,40 41,40 22,0 40,-18 40,-40 0,-22 -18,-40 -40,-40 -23,0 -41,18 -41,40z"/>
  <path class="fil0 str1" d="M15660 8052c22,0 40,-18 40,-41 0,-22 -18,-40 -40,-40 -22,0 -40,18 -40,40 0,23 18,41 40,41z"/>
  <path class="fil0 str1" d="M15318 7575c22,0 40,-18 40,-40 0,-22 -18,-40 -40,-40 -22,0 -40,18 -40,40 0,22 18,40 40,40z"/>
  <path class="fil0 str1" d="M14773 7456c22,0 40,-18 40,-40 0,-22 -18,-40 -40,-40 -22,0 -40,18 -40,40 0,22 18,40 40,40z"/>
  <path class="fil0 str1" d="M14627 7232c23,0 41,-18 41,-40 0,-22 -18,-40 -41,-40 -22,0 -40,18 -40,40 0,22 18,40 40,40z"/>
  <circle class="fil6 str0" cx="13979" cy="7278" r="40"/>
  <circle class="fil6 str0" cx="13078" cy="7550" r="40"/>
  <path class="fil0 str1" d="M13038 7550c0,22 18,40 40,40 22,0 40,-18 40,-40 0,-22 -18,-40 -40,-40 -22,0 -40,18 -40,40z"/>
  <path class="fil0 str1" d="M12718 7914c0,-22 -18,-40 -40,-40 -23,0 -40,18 -40,40 0,23 17,41 40,41 22,0 40,-18 40,-41z"/>
  <path class="fil41 str1" d="M13770 9248c-57,0 -104,47 -104,104 0,58 47,105 104,105 51,0 94,-37 103,-85 1,-6 2,-13 2,-20 0,-57 -47,-104 -105,-104zm0 145c-22,0 -40,-18 -40,-41 0,-22 18,-40 40,-40 23,0 40,18 40,40 0,23 -17,41 -40,41z"/>
  <path class="fil0 str1" d="M13770 9312c-22,0 -40,18 -40,40 0,23 18,41 40,41 23,0 40,-18 40,-41 0,-22 -17,-40 -40,-40z"/>
  <path class="fil0 str1" d="M13420 9246c22,0 40,-18 40,-40 0,-22 -18,-40 -40,-40 -23,0 -41,18 -41,40 0,22 18,40 41,40z"/>
  <circle class="fil6 str0" cx="13606" cy="8827" r="40"/>
  <path class="fil0 str1" d="M13566 8827c0,22 18,40 40,40 22,0 40,-18 40,-40 0,-23 -18,-41 -40,-41 -22,0 -40,18 -40,41z"/>
  <path class="fil0 str1" d="M13935 8040c0,23 18,40 40,40 22,0 40,-17 40,-40 0,-22 -18,-40 -40,-40 -22,0 -40,18 -40,40z"/>
  <path class="fil0 str1" d="M13487 8023c22,0 40,-18 40,-40 0,-22 -18,-40 -40,-40 -22,0 -40,18 -40,40 0,22 18,40 40,40z"/>
  <path class="fil0 str1" d="M13686 7768c0,22 18,40 40,40 22,0 40,-18 40,-40 0,-23 -18,-41 -40,-41 -22,0 -40,18 -40,41z"/>
  <path class="fil0 str1" d="M12937 8192c0,-22 -18,-40 -40,-40 -22,0 -40,18 -40,40 0,22 18,40 40,40 22,0 40,-18 40,-40z"/>
  <path class="fil0 str1" d="M12630 8180c22,0 40,-18 40,-40 0,-23 -18,-41 -40,-41 -22,0 -40,18 -40,41 0,22 18,40 40,40z"/>
  <path class="fil0 str2" d="M12724 8734c0,-22 -18,-40 -40,-40 -22,0 -40,18 -40,40 0,22 18,40 40,40 22,0 40,-18 40,-40z"/>
  <path class="fil0 str1" d="M14019 7278c0,-22 -18,-40 -40,-40 -22,0 -40,18 -40,40 0,22 18,40 40,40 22,0 40,-18 40,-40z"/>
  <path class="fil42 str1" d="M12630 8244c58,0 104,-47 104,-104 0,-58 -46,-105 -104,-105 -58,0 -105,47 -105,105 0,57 47,104 105,104zm40 -104c0,22 -18,40 -40,40 -22,0 -40,-18 -40,-40 0,-23 18,-41 40,-41 22,0 40,18 40,41z"/>
  <path class="fil0 str2" d="M12959 8999l-274 0c88,64 217,81 387,52l0 -165 -113 113z"/>
  <path class="fil6 str6" d="M14745 10280l99 6"/>
  <path class="fil6 str6" d="M14968 10286l116 -3"/>
  <path class="fil43 str2" d="M16114 8789c0,-23 18,-41 40,-41 22,0 40,18 40,41 0,22 -18,40 -40,40 -22,0 -40,-18 -40,-40zm-64 0c0,12 2,25 6,36 15,40 53,68 98,68 58,0 105,-47 105,-104 0,-58 -47,-105 -105,-105 -43,0 -81,26 -96,64 -6,13 -8,26 -8,41z"/>
  <path class="fil43 str2" d="M15655 9056c5,12 8,25 8,38 0,7 -1,14 -2,21l170 0c1,-22 9,-43 21,-59l-197 0z"/>
  <path class="fil0 str2" d="M12830 7811l116 -118 293 0 206 -206 0 -284c-40,33 -72,74 -96,125l0 43 -38 0c-47,33 -95,74 -148,118 12,17 20,38 20,61 0,58 -47,105 -105,105 -58,0 -105,-47 -105,-105 0,-58 47,-105 105,-105 12,0 24,2 34,6l92 -92c-160,2 -296,93 -377,190 -36,44 -63,95 -82,153 -10,34 -14,70 -19,109l104 0z"/>
  <path class="fil0 str2" d="M13521 7514l-256 252 -302 0 -57 61 376 0 323 -323 0 -413c-28,14 -56,31 -84,53l0 370z"/>
  <path class="fil0 str2" d="M14257 7149l0 1183 65 0 0 -341 72 -73 0 -847 -137 78z"/>
  <path class="fil6 str0" d="M15502 9561l-155 -175 0 -17 121 -110 72 79m-99 246l-94 -97 0 377c141,-26 264,-107 344,-202 67,-78 118,-176 137,-292l-145 -1m-282 297c0,58 47,104 105,104 58,0 104,-46 104,-104 0,-58 -46,-105 -104,-105 -1,0 -3,0 -4,0 -23,1 -44,9 -61,23 -24,19 -40,49 -40,82zm105 40c-22,0 -40,-18 -40,-40 0,-22 18,-40 40,-40 22,0 40,18 40,40 0,22 -18,40 -40,40zm-15 -279c0,58 46,104 104,104 58,0 105,-46 105,-104 0,-21 -7,-41 -17,-58 -19,-28 -51,-47 -88,-47 -20,0 -39,6 -55,16 -30,19 -49,51 -49,89zm104 40c-22,0 -40,-18 -40,-40 0,-22 18,-40 40,-40 22,0 40,18 40,40 0,22 -18,40 -40,40z"/>
  <path class="fil0 str2" d="M15506 9770c-58,0 -105,-46 -105,-104 0,-33 16,-63 40,-82l-94 -97 0 377c141,-26 264,-107 344,-202 67,-78 118,-176 137,-292l-145 -1c10,17 17,37 17,58 0,58 -47,104 -105,104 -58,0 -104,-46 -104,-104 0,-38 19,-70 49,-89l-72 -79 -121 110 0 17 155 175c1,0 2,0 4,0 58,0 104,47 104,105 0,58 -46,104 -104,104z"/>
  <path class="fil0" d="M15422 7535c0,56 -43,101 -97,105l0 92 37 0 156 -156 0 -182c-73,-51 -182,-73 -329,-66l-77 78 91 100 14 0c13,-44 53,-75 101,-75 58,0 104,46 104,104z"/>
  <path class="fil6 str0" d="M14828 7327l203 -203c-171,-107 -360,-132 -567,-75l0 914 -72 60 0 312 138 0 0 -721 47 -14 0 -316m196 28c58,0 105,46 105,104 0,58 -47,105 -105,105 -58,0 -105,-47 -105,-105 0,-58 47,-104 105,-104zm-127 -17l0 277 189 0 337 -327 -87 -86 -216 216m-242 -288c58,0 105,47 105,105 0,58 -47,105 -105,105 -57,0 -104,-47 -104,-105 0,-58 47,-105 104,-105z"/>
  <path class="fil0" d="M14530 8335l0 -721 47 -14 0 -316c-32,-18 -54,-52 -54,-92 0,-58 47,-105 104,-105 58,0 105,47 105,105 0,52 -37,94 -86,103l0 277 189 0 337 -327 -87 -86 -216 216c6,13 9,27 9,41 0,58 -47,105 -105,105 -58,0 -105,-47 -105,-105 0,-58 47,-104 105,-104 20,0 39,5 55,15l203 -203c-171,-107 -360,-132 -567,-75l0 914 -72 60 0 312 138 0z"/>
  <path class="fil6 str0" d="M13163 7489c53,-44 101,-85 148,-118l38 0 0 -43c24,-51 56,-92 96,-125l0 284 -206 206 -293 0 -116 118 -104 0c5,-39 9,-75 19,-109 19,-58 46,-109 82,-153 81,-97 217,-188 377,-190l-92 92m-34 139c-22,0 -40,-18 -40,-40 0,-22 18,-40 40,-40 22,0 40,18 40,40 0,22 -18,40 -40,40zm-105 -40c0,58 47,105 105,105 58,0 105,-47 105,-105 0,-23 -8,-44 -20,-61 -19,-26 -50,-44 -85,-44 -58,0 -105,47 -105,105z"/>
  <path class="fil11 str2" d="M15810 8175l-337 0 0 62 337 0 0 -62z"/>
  <path class="fil44 str2" d="M15810 8237c12,45 53,78 102,78 57,0 104,-47 104,-104 0,-58 -47,-105 -104,-105 -46,0 -84,29 -99,69 -4,11 -6,23 -6,36 0,9 1,17 3,26zm102 14c-23,0 -41,-18 -41,-40 0,-22 18,-40 41,-40 22,0 40,18 40,40 0,22 -18,40 -40,40z"/>
  <path class="fil12 str2" d="M15280 8174c-4,9 -6,16 -8,27 -2,11 -1,25 2,36 10,47 52,82 102,82 57,0 104,-46 104,-104 0,-14 -2,-28 -7,-40 -16,-38 -54,-65 -97,-65 -43,0 -80,26 -96,64zm96 81c-22,0 -40,-18 -40,-40 0,-22 18,-40 40,-40 22,0 40,18 40,40 0,22 -18,40 -40,40z"/>
  <path class="fil4" d="M14334 5175l-1 79c58,1 116,3 174,6l22 -74c-66,-6 -131,-9 -195,-11z"/>
  <path class="fil2" d="M12044 8944l-204 20 5 39 201 -23c-1,-12 -1,-24 -2,-36z"/>
  <path class="fil2" d="M16511 8507c4,23 8,46 11,69l449 -30 -4 -73 -456 34z"/>
  <path class="fil45" d="M15911 8879l-1085 0 0 67 1109 0 121 -121c-4,-11 -6,-24 -6,-36 0,-15 2,-28 8,-41l-147 131z"/>
  <path class="fil6 str0" d="M13726 7663c58,0 105,47 105,105 0,57 -47,104 -105,104 -58,0 -104,-47 -104,-104 0,-58 46,-105 104,-105zm-945 234l528 0 364 -354 0 -472c30,-16 59,-27 88,-31l0 629m128 431l-25 25 -489 0 -245 236 -757 0c22,-47 50,-87 80,-109l0 -66c24,-145 62,-228 120,-262m210 835l324 0 -182 168 -349 0c-27,-20 -51,-41 -73,-63 -36,-39 -66,-82 -88,-130 -53,-113 -57,-183 -52,-300l790 0 249 -233 479 0 56 -63m0 0c12,4 25,7 38,7 58,0 105,-47 105,-105 0,-5 -1,-9 -1,-14 -4,-25 -16,-47 -34,-63 -18,-17 -43,-27 -70,-27 -58,0 -105,47 -105,104 0,22 7,43 19,60 12,17 28,30 48,38zm78 -98c0,23 -18,40 -40,40 -22,0 -40,-17 -40,-40 0,-22 18,-40 40,-40 22,0 40,18 40,40zm64 -14l45 -52 0 -608 -61 0 0 579 -18 18m-1367 -153c57,0 104,47 104,104 0,58 -47,105 -104,105 -58,0 -105,-47 -105,-105 0,-57 47,-104 105,-104zm3 819c58,0 105,47 105,105 0,58 -47,105 -105,105 -58,0 -104,-47 -104,-105 0,-58 46,-105 104,-105zm94 58l417 0 319 -317 -63 -63 -270 251 -663 0 0 82 -71 0 0 -154 715 0 269 -259 32 0 118 104 595 0 0 -1231c-104,-57 -218,-79 -340,-67l0 672 -14 14"/>
  <path class="fil6 str3" d="M12514 10217l-1128 0 -300 318 0 975 269 265 711 0c307,213 545,376 851,502 449,184 911,265 1374,264 561,-2 1126,-130 1675,-406 203,-102 386,-230 585,-369l688 0 278 -262 0 -769c201,-304 309,-636 412,-947 113,-343 113,-728 122,-1044 25,-870 -346,-1641 -712,-2149 -270,-376 -688,-783 -1212,-1092 -375,-221 -1232,-519 -1857,-501 -427,11 -1059,128 -1518,349 -261,125 -648,372 -861,574l224 0c0,0 195,-133 286,-192 169,-110 335,-208 518,-276 450,-168 875,-283 1359,-283 690,0 1532,242 2086,650 91,68 181,141 269,220 82,73 163,151 242,235 136,143 267,301 394,474l-1066 635 -312 0c-210,-165 -362,-307 -580,-407 -657,-300 -1400,-290 -2035,14 -135,65 -274,153 -385,248 -56,47 -75,91 -143,145l-1378 0 -567 -607 346 -516 65 81 1010 0 83 93 297 0 -214 -269 -1009 0 -115 -120 143 -153 27 23 196 0 87 -84 -98 -144 156 -138 140 115 173 -132 -68 -164 165 -109 127 133 196 -113 -48 -181 168 -79 116 148 207 -87 -14 -189 179 -59 88 163 226 -54 0 -192 194 -40 69 176 232 -38 16 -182 200 -7 35 172 245 0 43 -179 200 20 15 176 231 41 70 -177 187 45 0 182 229 62 92 -165 174 56 -16 192 208 84 116 -153 171 81 -48 182 200 111 125 -135 159 110 -69 171 185 134 139 -118 149 134 -91 147 175 149 142 -91 146 144 -121 147 142 157 161 -74 120 168 -129 129 118 172 163 -44 98 170 -126 113 53 89 174 -43 87 180 -150 101 81 210 165 -12 68 189 -162 81 51 220 182 2 40 195 -167 59 19 228 179 30 0 205 -162 34 0 73 164 37 0 206 -174 13 -23 233 162 64 -34 196 -175 0 -50 213 149 86 -53 186 -174 -12 -75 216 142 103 -84 177 -162 -39 -100 205 135 112 -114 170 -164 -56 0 630 -313 300 -301 0 0 23 -160 133 -155 -119 -174 123 78 173 -163 105 -142 -128 -187 104 51 179 -174 85 -115 -144 -210 86 24 181 -182 58 -93 -159 -217 52 0 196 -196 35 -67 -178 -239 28 -5 196 -205 14 -44 -189 -236 0 -38 182 -206 -5 -19 -192 -227 -28 -66 172 -191 -34 0 -187 -227 -55 -93 151 -175 -47 16 -191 -210 -81 -114 145 -169 -91 45 -171 -186 -107 -140 120 -158 -97 71 -177 -172 -131 -155 126 -151 -132 0 -27 -307 0 -315 -294 0 -635 -160 64 -113 -174 141 -119 -103 -197 -164 41 -87 -178 144 -108 -76 -207 -172 11 -66 -187 160 -87 -53 -215 -176 0 -35 -201 154 -59 -17 -233 -174 -15 0 -215 166 -25 0 -73 -167 -40 3 -203 176 -30 15 -222 -152 -61 39 -202 170 0 51 -218 -154 -83 58 -195 173 17 80 -205 -148 -105 85 -183 170 42 31 -68 131 145c-560,1161 -540,2299 57,3414l107 -111c-127,-220 -234,-487 -321,-800l1343 -232c47,232 181,501 401,809z"/>
  <rect class="fil21 str0" transform="matrix(0.243826 0.851451 -0.881937 0.23733 14057.8 5116.91)" width="228.21" height="67.8"/>
  <rect class="fil21 str0" transform="matrix(-0.0150291 0.885548 0.913311 0.000860267 14273.8 5066.79)" width="228.21" height="67.8"/>
  <path class="fil21 str1" d="M13925 5411l-133 -156 -48 40 133 156 48 -40z"/>
  <path class="fil20 str1" d="M14809 5253l-131 154 48 39 131 -154 -48 -39z"/>
  <rect class="fil21 str0" transform="matrix(-0.243826 0.851451 0.881937 0.23733 14548.5 5116.91)" width="228.21" height="67.8"/>
  <path class="fil38" d="M14358 6185l0 228 -107 0 0 -229c-26,-57 -55,-102 -73,-146 -57,-136 -74,-217 -65,-232 6,-9 24,6 56,44 27,75 44,111 75,111 16,-1 36,-6 56,-28 23,22 43,27 61,26 30,-1 51,-34 64,-100 35,-43 57,-63 66,-59 16,7 -7,86 -70,237 -18,44 -39,93 -63,148zm-169 24l0 211 -42 0 0 -40c7,-96 -115,-187 -190,-292 -72,-103 -106,-252 -52,-418 26,-79 70,-139 122,-181 3,-2 5,-4 8,-6 101,-77 195,-88 257,-88 54,0 159,4 267,87 18,14 36,30 54,48 82,86 119,203 116,309 -2,58 -31,169 -93,254 -77,106 -191,189 -183,288l0 41 -43 0 0 -215c15,-33 29,-64 42,-93 45,-104 75,-186 89,-246 14,-59 5,-90 -11,-106 -14,-14 -47,-9 -72,4 -10,5 -20,11 -31,18 -16,-38 -40,-52 -60,-54 -21,-2 -45,10 -62,46 -12,-31 -36,-44 -54,-46 -21,-1 -50,13 -64,56 -7,-11 -15,-19 -27,-25 -28,-14 -68,-13 -81,-2 -18,15 -29,46 -15,108 13,60 41,143 84,247 12,30 26,61 41,95zm141 289l190 0 0 -127c-1,-6 7,-25 9,-30 37,-80 106,-150 169,-229 77,-96 96,-212 91,-292 -8,-135 -49,-246 -119,-328 -83,-96 -207,-152 -365,-159 -138,-6 -271,58 -362,159 -80,88 -130,204 -125,325 2,37 1,137 50,235 21,42 50,86 90,132 24,26 56,56 79,89 18,26 33,53 42,77 3,7 9,17 9,25l0 123 212 0c8,0 15,0 23,0 2,0 4,0 7,0zm-56 -656c1,32 -8,58 -19,59 -12,0 -23,-25 -24,-57 -1,-32 8,-58 19,-59 12,0 23,25 24,57zm104 2c-1,32 -12,57 -23,57 -12,-1 -21,-27 -20,-59 2,-32 12,-57 24,-57 12,1 20,27 19,59z"/>
  <path class="fil6 str0" d="M14088 6375c0,-8 -6,-18 -9,-25 -9,-24 -24,-51 -42,-77 -23,-33 -55,-63 -79,-89 -40,-46 -69,-90 -90,-132 -49,-98 -48,-198 -50,-235 -10,-260 228,-495 487,-484 292,12 467,192 484,487 5,80 -14,196 -91,292 -63,79 -132,149 -169,229 -2,5 -10,24 -9,30l0 127 -432 0 0 -123z"/>
  <path class="fil6 str0" d="M14147 6380c7,-96 -115,-187 -190,-292 -72,-103 -106,-252 -52,-418 26,-79 70,-139 122,-181 104,-82 201,-94 265,-94 63,0 196,5 321,135 82,86 119,203 116,309 -2,58 -31,169 -93,254 -77,106 -191,189 -183,288l0 41 -43 0 0 -215c15,-33 29,-64 42,-93 45,-104 75,-186 89,-246 14,-59 5,-90 -11,-106 -14,-14 -47,-9 -72,4 -10,5 -20,11 -31,18 -16,-38 -40,-52 -60,-54 -21,-2 -45,10 -62,46 -12,-31 -36,-44 -54,-46 -21,-1 -50,13 -64,56 -7,-11 -15,-19 -27,-25 -28,-14 -68,-13 -81,-2 -18,15 -29,46 -15,108 13,60 41,143 84,247 12,30 26,61 41,95l0 211 -42 0 0 -40z"/>
  <path class="fil6 str3" d="M16257 11779c-193,119 -334,218 -528,303 -868,378 -1802,417 -2662,92 -253,-96 -473,-238 -726,-395l3916 0z"/>
  <path class="fil6 str0" d="M15558 8990c58,0 105,47 105,104 0,58 -47,105 -105,105 -58,0 -105,-47 -105,-105 0,-57 47,-104 105,-104zm-97 66l-127 0 -84 84 -88 0 -137 -126 -326 0 -105 101 -304 0 0 70 322 0 105 -106 282 0 129 130 150 0 93 -94 84 0m206 0l171 0m-177 -59l197 0m-21 62c0,58 47,105 105,105 58,0 104,-47 104,-105 0,-57 -46,-104 -104,-104 -57,0 -103,45 -105,101 0,1 0,2 0,3zm145 0c0,23 -18,41 -40,41 -22,0 -40,-18 -40,-41 0,-22 18,-40 40,-40 22,0 40,18 40,40z"/>
  <path class="fil6 str0" d="M13606 8722c58,0 104,47 104,105 0,57 -46,104 -104,104 -58,0 -105,-47 -105,-104 0,-58 47,-105 105,-105zm1651 -1102l0 175 137 0 188 -189 0 -172c123,91 188,199 192,323l-154 0 -121 120 -666 0 0 68 678 0 116 -110 186 0c207,68 306,220 298,456l-76 0 -292 292 -119 0 -78 -78 -257 0 -141 136 -1165 0 -119 119 -178 0m1639 -1120l0 92 37 0 156 -156 0 -182c-73,-51 -182,-73 -329,-66l-77 78 91 100 14 0m340 490l-590 0 -172 172 -45 0 0 -388 276 0 203 -190m431 317c58,0 105,47 105,104 0,58 -47,105 -105,105 -58,0 -104,-47 -104,-105 0,-57 46,-104 104,-104zm-1950 920l176 0 126 -118 1161 0 132 -133 213 0 86 74 177 0 284 -289 77 0c55,54 94,105 116,152l-188 0 -253 254 -1365 0m-64 -21c58,0 105,47 105,105 0,57 -47,104 -105,104 -58,0 -105,-47 -105,-104 0,-58 47,-105 105,-105zm-968 355c57,0 104,47 104,105 0,57 -47,104 -104,104 -58,0 -105,-47 -105,-104 0,-58 47,-105 105,-105zm441 200l281 0 -83 -83 -536 0m247 30c58,0 105,47 105,104 0,58 -47,105 -105,105 -57,0 -104,-47 -104,-105 0,-57 47,-104 104,-104zm1527 -2021c-93,-157 -263,-244 -415,-286 -185,-51 -426,-46 -633,79 -158,-91 -340,-109 -490,-87 -188,27 -365,128 -502,319 -176,-9 -302,43 -407,123 -114,86 -219,224 -235,391 -175,76 -266,219 -273,428 -160,153 -109,475 -9,635 164,265 484,406 750,324 9,28 14,56 25,86 74,199 330,358 528,378 131,13 289,-4 435,-83l392 435 165 311 117 0 0 -13 -196 -354 -39 -39 0 -432 -358 0 -18 -16 -110 0c-103,116 -379,100 -517,48 -151,-57 -313,-227 -325,-413l175 -161 161 161 503 0m1272 -1836c150,-4 298,67 399,154 99,86 174,201 203,363 123,48 195,127 251,220 56,93 83,205 83,336 66,63 99,117 128,182 32,69 57,151 50,284 -14,242 -175,564 -478,630 -19,202 -154,364 -289,458 -169,118 -407,176 -690,81l248 336 0 16 -114 -2 -293 -419 0 -496 -106 1 0 495 283 407 0 15 -124 0 -254 -405 0 -509 -717 0m248 -446c58,0 105,47 105,105 0,58 -47,104 -105,104 -58,0 -105,-46 -105,-104 0,-58 47,-105 105,-105zm1551 -607c57,0 104,47 104,105 0,58 -47,105 -104,105 -58,0 -105,-47 -105,-105 0,-58 47,-105 105,-105zm-98 66l-420 0 -129 129 -1379 0 -454 444 0 -139 420 -394 1255 0 199 -188 208 0m6 -63l-244 0 -175 162 -263 0 0 -694 256 0 200 -187 109 103 -153 151 -321 0 0 525 138 0 168 -169 575 0m240 171c12,46 53,79 102,79 57,0 104,-47 104,-104 0,-58 -47,-105 -104,-105 -58,0 -105,47 -105,105 0,9 1,17 3,25zm142 -25c0,22 -18,40 -40,40 -23,0 -41,-18 -41,-40 0,-22 18,-40 41,-40 22,0 40,18 40,40zm-576 108c50,0 92,-35 102,-83 2,-7 2,-14 2,-21 0,-58 -47,-105 -104,-105 -43,0 -80,26 -96,64 -6,12 -9,26 -9,41 0,8 1,15 3,23 10,46 52,81 102,81zm40 -104c0,22 -18,40 -40,40 -22,0 -40,-18 -40,-40 0,-22 18,-40 40,-40 22,0 40,18 40,40zm57 -40l340 0m-334 61l331 1m-1785 751l-482 0 -132 -133 0 -11 272 -261 1369 0 130 -130 390 0m-2064 697l584 0 134 134 1117 0 98 -98 53 0 96 104 301 0c299,-82 429,-319 389,-711l-175 0 -257 257 -1356 0m765 -1216c17,13 48,20 61,20 54,0 104,-45 104,-105 0,-56 -46,-104 -104,-104 -58,0 -105,46 -105,104 0,20 6,39 16,55 7,12 17,22 28,30zm61 -45c-22,0 -40,-18 -40,-40 0,-22 18,-40 40,-40 22,0 40,18 40,40 0,22 -18,40 -40,40z"/>
 </g>
</svg>
